<svg id="_x35_0" enable-background="new 0 0 512 512" height="512" viewBox="0 0 512 512" width="512" xmlns="http://www.w3.org/2000/svg"><g><circle cx="256" cy="256" fill="#fa80a4" r="256"/><g><g><g><path d="m143.73 128.59v280.05c0 9.91-8.03 17.94-17.94 17.94s-17.94-8.03-17.94-17.94v-280.05c0-9.91 8.03-17.94 17.94-17.94 4.95 0 9.44 2.01 12.69 5.25 3.24 3.25 5.25 7.74 5.25 12.69z" fill="#ebd9ea"/><path d="m143.73 128.59v280.05c0 9.91-8.03 17.94-17.94 17.94v-315.93c4.95 0 9.44 2.01 12.69 5.25 3.24 3.25 5.25 7.74 5.25 12.69z" fill="#fff"/></g><g><path d="m166.26 110.65c0 4.95-2.01 9.44-5.25 12.69-3.25 3.24-7.73 5.25-12.69 5.25h-45.06c-9.91 0-17.94-8.03-17.94-17.94 0-4.95 2.01-9.44 5.25-12.69 3.25-3.24 7.73-5.25 12.69-5.25h45.06c9.91 0 17.94 8.03 17.94 17.94z" fill="#c2aacf"/><path d="m166.26 110.65c0 4.95-2.01 9.44-5.25 12.69-3.25 3.24-7.73 5.25-12.69 5.25h-22.53v-35.88h22.53c9.91 0 17.94 8.03 17.94 17.94z" fill="#ebd9ea"/></g></g><g><g><path d="m433.652 166.159c-67.432 0-73.344-9.46-73.344-9.46v193.622c0 12.201 6.16 22.524 14.436 24.201 10.471 2.122 28.389 4.059 58.908 4.059z" fill="#dd5e26"/><path d="m433.652 305.524c-67.432 0-73.344-9.46-73.344-9.46v-72.006s5.912 9.46 73.344 9.46z" fill="#daab42"/></g><g><path d="m143.73 341.012c172.787 0 216.658 9.46 216.658 9.46v-193.42c0-11.396-12.125-21.033-28.353-22.502-29.762-2.694-86.78-5.96-188.304-5.96v212.422z" fill="#f9c744"/><g fill="#ea792e"><path d="m360.39 206.11v76.3s-24.37-5.26-108.33-7.93v-76.3c83.96 2.67 108.33 7.93 108.33 7.93z"/><path d="m252.06 130.12v68.06c-28.68-.92-64.33-1.53-108.33-1.53v-68.06c44 0 79.64.62 108.33 1.53z"/><path d="m252.06 274.48v68.06c-28.68-.92-64.33-1.53-108.33-1.53v-68.06c44 0 79.65.61 108.33 1.53z"/></g></g></g></g></g></svg>