<svg height="512" viewBox="0 0 64 64" width="512" xmlns="http://www.w3.org/2000/svg"><g id="game-video_game-computer-mouse-keyboard" data-name="game-video game-computer-mouse-keyboard"><path d="m3 27v4a4 4 0 0 0 4 4h40v-8z" fill="#e0e0e2"/><path d="m43 3h-36a4 4 0 0 0 -4 4v20h44v-20a4 4 0 0 0 -4-4z" fill="#46f8ff"/><path d="m57 49a3.995 3.995 0 0 1 4 4v4a4 4 0 0 1 -8 0v-4a4 4 0 0 1 4-4z" fill="#ff7956"/><rect fill="#898890" height="12" rx="4" width="40" x="5" y="49"/><path d="m32 43v2h-14v-2a2.006 2.006 0 0 1 2-2h10a2.006 2.006 0 0 1 2 2z" fill="#e0e0e2"/><path d="m22 35h6v6h-6z" fill="#898890"/><path d="m61 53v4a3.994 3.994 0 0 1 -6 3.46 3.98 3.98 0 0 0 2-3.46v-4a4.025 4.025 0 0 0 -1.17-2.83 4.225 4.225 0 0 0 -.83-.63 3.995 3.995 0 0 1 6 3.46z" fill="#ff5023"/><path d="m45 53v4a4 4 0 0 1 -4 4h-4a4 4 0 0 0 4-4v-4a4 4 0 0 0 -4-4h4a4 4 0 0 1 4 4z" fill="#57565c"/><path d="m32 43v2h-4v-2a2.006 2.006 0 0 0 -2-2h4a2.006 2.006 0 0 1 2 2z" fill="#898890"/><path d="m25 35h3v6h-3z" fill="#57565c"/><path d="m60.65 13a5.8 5.8 0 0 1 .35 2 5.971 5.971 0 0 1 -2.27 4.69v.01a6 6 0 1 1 1.92-6.7z" fill="#c0ab91"/><path d="m61 15a5.971 5.971 0 0 1 -2.27 4.69v.01a6 6 0 0 1 -5.72.96 5.806 5.806 0 0 0 1.72-.96v-.01a5.971 5.971 0 0 0 2.27-4.69 5.8 5.8 0 0 0 -.35-2 5.952 5.952 0 0 0 -3.65-3.65 5.761 5.761 0 0 1 2-.35 5.981 5.981 0 0 1 5.65 4 5.8 5.8 0 0 1 .35 2z" fill="#a78966"/><path d="m58.73 19.7-.6 9.44a1.991 1.991 0 0 1 -1.99 1.86h-2.28a1.991 1.991 0 0 1 -1.99-1.86l-.4-6.14-.21-3.31a6 6 0 0 0 7.47.01z" fill="#ff7956"/><path d="m51.47 23h-3.47l-1.44 8.66a4 4 0 0 1 -3.95 3.34h-1.22a4 4 0 0 1 -3.95-3.34l-1.44-8.66h-3.49l.22-3.3v-.01a5.973 5.973 0 0 0 .73-8.69h17.08a5.982 5.982 0 0 0 .72 8.69z" fill="#fee9ab"/><path d="m39 15h6v4h-6z" fill="#bdfdff"/><path d="m42 15h3v4h-3z" fill="#46f8ff"/><path d="m45 9v2h-6v-2a2.006 2.006 0 0 1 2-2h2a2.006 2.006 0 0 1 2 2z" fill="#ff7956"/><path d="m45 9v2h-3v-2a2 2 0 0 0 -1.5-1.93 1.679 1.679 0 0 1 .5-.07h2a2.006 2.006 0 0 1 2 2z" fill="#ff5023"/><circle cx="42" cy="25" fill="#ff3051" r="2"/><path d="m44 25a2 2 0 0 1 -3 1.73 2 2 0 0 0 0-3.46 2 2 0 0 1 3 1.73z" fill="#cd2a00"/><path d="m35 15a5.971 5.971 0 0 1 -2.27 4.69v.01a6 6 0 0 1 -9.73-4.7 5.8 5.8 0 0 1 .35-2 6 6 0 0 1 11.65 2z" fill="#c0ab91"/><path d="m32.73 19.7-.22 3.3-.38 6.14a1.991 1.991 0 0 1 -1.99 1.86h-2.28a1.991 1.991 0 0 1 -1.99-1.86l-.61-9.45a6 6 0 0 0 7.47.01z" fill="#ff7956"/><path d="m35 15a5.971 5.971 0 0 1 -2.27 4.69v.01a6 6 0 0 1 -5.72.96 5.806 5.806 0 0 0 1.72-.96v-.01a5.971 5.971 0 0 0 2.27-4.69 5.8 5.8 0 0 0 -.35-2 5.952 5.952 0 0 0 -3.65-3.65 5.761 5.761 0 0 1 2-.35 5.981 5.981 0 0 1 5.65 4 5.8 5.8 0 0 1 .35 2z" fill="#a78966"/><path d="m28 12h2v2h-2z"/><path d="m26 14h2v2h-2z"/><path d="m28 16h2v2h-2z"/><path d="m30 14h2v2h-2z"/><path d="m54 12h2v2h-2z"/><path d="m52 14h2v2h-2z"/><path d="m56 14h2v2h-2z"/><path d="m54 16h2v2h-2z"/><path d="m45 20a1 1 0 0 0 1-1v-4a1 1 0 0 0 -1-1h-6a1 1 0 0 0 -1 1v4a1 1 0 0 0 1 1zm-5-4h4v2h-4z"/><path d="m45 25a3 3 0 1 0 -3 3 3 3 0 0 0 3-3zm-3 1a1 1 0 1 1 1-1 1 1 0 0 1 -1 1z"/><path d="m41 48h-32a5.006 5.006 0 0 0 -5 5v4a5.006 5.006 0 0 0 5 5h32a5.006 5.006 0 0 0 5-5v-4a5.006 5.006 0 0 0 -5-5zm3 9a3 3 0 0 1 -3 3h-32a3 3 0 0 1 -3-3v-4a3 3 0 0 1 3-3h32a3 3 0 0 1 3 3z"/><path d="m58 48.1v-2.1a3.009 3.009 0 0 0 -3-3h-6a1 1 0 0 1 -1-1v-12.9l.85-5.1h1.69l.33 5.21a3.01 3.01 0 0 0 2.99 2.79h2.28a3.011 3.011 0 0 0 2.99-2.8l.57-9.03a6.991 6.991 0 1 0 -9.59-10.17h-2.11v-3a5 5 0 0 0 -5-5h-36a5 5 0 0 0 -5 5v24a5 5 0 0 0 5 5h14v4h-1a3.009 3.009 0 0 0 -3 3v2a1 1 0 0 0 1 1h14a1 1 0 0 0 1-1v-2a3.009 3.009 0 0 0 -3-3h-1v-4h17v6a3.009 3.009 0 0 0 3 3h6a1 1 0 0 1 1 1v2.1a5.017 5.017 0 0 0 -4 4.9v4a5 5 0 0 0 10 0v-4a5.017 5.017 0 0 0 -4-4.9zm-.87-19.03a1 1 0 0 1 -.99.93h-2.28a1 1 0 0 1 -.99-.93l-.49-7.58a7.108 7.108 0 0 0 2.62.51 6.859 6.859 0 0 0 2.61-.51zm-2.13-19.07a5 5 0 1 1 -5 5 5 5 0 0 1 5-5zm-51-3a3.009 3.009 0 0 1 3-3h36a3.009 3.009 0 0 1 3 3v2a3.009 3.009 0 0 0 -3-3h-2a3.009 3.009 0 0 0 -3 3v1h-4.11a6.99 6.99 0 1 0 -9.6 10.16l.38 5.84h-20.67zm40 2v1h-4v-1a1 1 0 0 1 1-1h2a1 1 0 0 1 1 1zm-11.89 9.91a.647.647 0 0 0 -.09.08 5.086 5.086 0 0 1 -6.14-.08 5.005 5.005 0 1 1 6.23 0zm1.35 5.09h1.69l.33 2h-2.15zm-1.84-2.53-.49 7.6a1 1 0 0 1 -.99.93h-2.28a.994.994 0 0 1 -.99-.92l-.49-7.61a7.083 7.083 0 0 0 2.62.53 6.888 6.888 0 0 0 2.62-.53zm-1.62 20.53a1 1 0 0 1 1 1v1h-12v-1a1 1 0 0 1 1-1zm-7-2v-4h4v4zm-16-6a3.009 3.009 0 0 1 -3-3v-3h20.79l.08 1.21a3.01 3.01 0 0 0 2.99 2.79h2.28a3.011 3.011 0 0 0 2.99-2.8l.07-1.2h2.62l.63 3.82a5 5 0 0 0 .95 2.18zm40.01-11.16-1.44 8.66a2.98 2.98 0 0 1 -2.96 2.5h-1.22a2.98 2.98 0 0 1 -2.96-2.5l-1.44-8.66a1 1 0 0 0 -.99-.84h-2.42l.12-1.84a6.914 6.914 0 0 0 1.61-8.16h13.38a6.884 6.884 0 0 0 -.69 3 6.986 6.986 0 0 0 2.29 5.16l.12 1.84h-2.41a1 1 0 0 0 -.99.84zm12.99 34.16a3 3 0 0 1 -6 0v-4a3.01 3.01 0 0 1 2-2.82v2.82h2v-2.82a3.01 3.01 0 0 1 2 2.82z"/><path d="m20 56h10v2h-10z"/><path d="m12 52h2v2h-2z"/><path d="m8 52h2v2h-2z"/><path d="m16 52h2v2h-2z"/><path d="m12 56h2v2h-2z"/><path d="m8 56h2v2h-2z"/><path d="m16 56h2v2h-2z"/><path d="m36 56h2v2h-2z"/><path d="m32 56h2v2h-2z"/><path d="m40 56h2v2h-2z"/><path d="m20 52h2v2h-2z"/><path d="m24 52h2v2h-2z"/><path d="m28 52h2v2h-2z"/><path d="m32 52h2v2h-2z"/><path d="m36 52h2v2h-2z"/><path d="m40 52h2v2h-2z"/></g></svg>