<svg height="512" viewBox="0 0 60 60" width="512" xmlns="http://www.w3.org/2000/svg"><g id="Page-1" fill="none" fill-rule="evenodd"><g id="014---VS" fill-rule="nonzero"><g id="Icons" transform="translate(1 1)"><path id="Shape" d="m58 40v2c0 2.209139-1.790861 4-4 4h-50c-2.209139 0-4-1.790861-4-4v-2z" fill="#02a9f4"/><path id="Shape" d="m55 40v2c0 2.209139-1.790861 4-4 4h3c2.209139 0 4-1.790861 4-4v-2z" fill="#0377bc"/><path id="Shape" d="m58 4v36h-58v-36c0-2.209139 1.790861-4 4-4h50c2.209139 0 4 1.790861 4 4z" fill="#9d27b0"/><path id="Shape" d="m54 0h-3c2.209139 0 4 1.790861 4 4v36h3v-36c0-2.209139-1.790861-4-4-4z" fill="#6a1b9a"/><path id="Shape" d="m38.16 24h14.84c.5522847 0 1 .4477153 1 1v10c0 .5522847-.4477153 1-1 1h-48c-.55228475 0-1-.4477153-1-1v-10c0-.5522847.44771525-1 1-1z" fill="#ffdc00"/><path id="Shape" d="m53 24h-3c.5522847 0 1 .4477153 1 1v10c0 .5522847-.4477153 1-1 1h3c.5522847 0 1-.4477153 1-1v-10c0-.5522847-.4477153-1-1-1z" fill="#fec108"/><path id="Shape" d="m19.84 16h-14.84c-.55228475 0-1-.4477153-1-1v-10c0-.55228475.44771525-1 1-1h48c.5522847 0 1 .44771525 1 1v10c0 .5522847-.4477153 1-1 1z" fill="#ff9801"/><path id="Shape" d="m53 4h-3c.5522847 0 1 .44771525 1 1v10c0 .5522847-.4477153 1-1 1h3c.5522847 0 1-.4477153 1-1v-10c0-.55228475-.4477153-1-1-1z" fill="#f57c00"/><rect id="Rectangle-path" fill="#02a9f4" height="4" rx="2" width="32" x="13" y="54"/><path id="Shape" d="m43 54h-3c1.1045695 0 2 .8954305 2 2s-.8954305 2-2 2h3c1.1045695 0 2-.8954305 2-2s-.8954305-2-2-2z" fill="#0377bc"/><path id="Shape" d="m36 46h-14l-3 8h20z" fill="#3f51b5"/><path id="Shape" d="m36 46h-3l3 8h3z" fill="#283593"/><circle id="Oval" cx="29" cy="20" fill="#f44335" r="10"/><g fill="#f5f5f5"><path id="Shape" d="m25.5 25c-.4371091.0004636-.8238674-.2830242-.955-.7l-2.5-8c-.1071797-.3411886-.0241958-.7136396.2176924-.9770543.2418882-.2634146.6059321-.377774.955-.3.3490678.077774.6301279.3358657.7373076.6770543l1.545 4.947 1.545-4.947c.1071797-.3411887.3882397-.5992803.7373076-.6770543s.7131118.0365854.955.3c.2418882.2634147.3248721.6358657.2176924.9770543l-2.5 8c-.1311326.4169758-.5178909.7004636-.955.7z"/><path id="Shape" d="m33 25c-.7963701.0023114-1.5605334-.3142294-2.122-.879-.2597729-.2512596-.3637612-.6231337-.2719978-.9726946.0917635-.3495608.3649986-.6224097.7146889-.7136787s.721417.0132453.9723089.2733733c.3202649.319456.8150982.3841378 1.2067146.1577348.3916165-.226403.582482-.6875039.4654502-1.1244539s-.5128136-.7409245-.9651648-.7412809c-1.3578286-.0001627-2.546258-.9123126-2.8975192-2.2239201-.3512611-1.3116075.2222343-2.695618 1.3982439-3.374367 1.1760095-.6787489 2.6612904-.4829877 3.6212753.4772871.3787042.3926454.3728476 1.0163551-.0131628 1.40182-.3860105.3854648-1.0097279.3904391-1.4018372.01118-.3202649-.319456-.8150982-.3841378-1.2067146-.1577348-.3916165.226403-.582482.6875039-.4654502 1.1244539s.5128136.7409245.9651648.7412809c1.6568542 0 3 1.3431458 3 3s-1.3431458 3-3 3z"/></g></g><g id="Icons_copy" fill="#000"><path id="Shape" d="m55 0h-50c-2.76005315.00330612-4.99669388 2.23994685-5 5v38c.00330612 2.7600532 2.23994685 4.9966939 5 5h16.557l-2.25 6h-3.307c-1.6568542 0-3 1.3431458-3 3s1.3431458 3 3 3h28c1.6568542 0 3-1.3431458 3-3s-1.3431458-3-3-3h-3.307l-2.25-6h16.557c2.7600532-.0033061 4.9966939-2.2399468 5-5v-38c-.0033061-2.76005315-2.2399468-4.99669388-5-5zm-50 2h50c1.6568542 0 3 1.34314575 3 3v35h-56v-35c0-1.65685425 1.34314575-3 3-3zm40 55c0 .5522847-.4477153 1-1 1h-28c-.5522847 0-1-.4477153-1-1s.4477153-1 1-1h28c.5522847 0 1 .4477153 1 1zm-6.443-3h-17.114l2.25-6h12.614zm16.443-8h-50c-1.65685425 0-3-1.3431458-3-3v-1h56v1c0 1.6568542-1.3431458 3-3 3z"/><circle id="Oval" cx="30" cy="44" r="1"/><path id="Shape" d="m6 38h48c1.1045695 0 2-.8954305 2-2v-10c0-1.1045695-.8954305-2-2-2h-13.426c.5680209-1.959669.5680209-4.040331 0-6h13.426c1.1045695 0 2-.8954305 2-2v-10c0-1.1045695-.8954305-2-2-2h-48c-1.1045695 0-2 .8954305-2 2v10c0 1.1045695.8954305 2 2 2h13.426c-.5680209 1.959669-.5680209 4.040331 0 6h-13.426c-1.1045695 0-2 .8954305-2 2v10c0 1.1045695.8954305 2 2 2zm0-22v-10h48v10h-14.214c-1.8734433-3.6818593-5.6549133-6.00058196-9.786-6.00058196s-7.9125567 2.31872266-9.786 6.00058196zm33 5c0 4.9705627-4.0294373 9-9 9s-9-4.0294373-9-9 4.0294373-9 9-9c4.9680501.006061 8.993939 4.0319499 9 9zm-33 5h14.214c1.8734433 3.6818593 5.6549133 6.000582 9.786 6.000582s7.9125567-2.3187227 9.786-6.000582h14.214v10h-48z"/><path id="Shape" d="m29.3 16.045c-.2532812-.0791496-.527636-.054384-.7626489.0688431-.235013.123227-.4114115.3348102-.4903511.5881569l-1.547 4.945-1.545-4.947c-.1071797-.3411886-.3882398-.5992803-.7373076-.6770543-.3490679-.077774-.7131118.0365854-.955.3-.2418882.2634147-.3248721.6358657-.2176924.9770543l2.5 8c.1299224.4183192.5169695.7033942.955.7033942s.8250776-.285075.955-.7033942l2.5-8c.0798462-.2532797.0556658-.527918-.0672087-.7633492-.1228745-.2354313-.3343504-.4123177-.5877913-.4916508z"/><path id="Shape" d="m34 18c.2650514-.0002087.5193437.1048173.707.292.3921093.3792591 1.0158267.3742848 1.4018372-.01118.3860104-.3854649.391867-1.0091746.0131628-1.40182-.9599849-.9602748-2.4452658-1.156036-3.6212753-.4772871-1.1760096.678749-1.749505 2.0627595-1.3982439 3.374367.3512612 1.3116075 1.5396906 2.2237574 2.8975192 2.2239201.4523512.0003564.848133.3043309.9651648.7412809s-.0738337.8980509-.4654502 1.1244539c-.3916164.226403-.8864497.1617212-1.2067146-.1577348-.2508919-.260128-.6226186-.3646423-.9723089-.2733733s-.6229254.3641179-.7146889.7136787c-.0917634.3495609.0122249.721435.2719978.9726946.9599849.9602748 2.4452658 1.156036 3.6212753.4772871 1.1760096-.678749 1.749505-2.0627595 1.3982439-3.374367-.3512612-1.3116075-1.5396906-2.2237574-2.8975192-2.2239201-.5522847 0-1-.4477153-1-1s.4477153-1 1-1z"/></g></g></g></svg>