<svg id="Icons" enable-background="new 0 0 512 512" height="512" viewBox="0 0 512 512" width="512" xmlns="http://www.w3.org/2000/svg"><g><g><circle cx="256" cy="256" fill="#29a3fb" r="256"/><circle cx="256" cy="256" fill="#4fcae8" r="213.02"/></g><g><g><path d="m462.93 406.75c-46.56 63.8-121.91 105.25-206.93 105.25s-160.37-41.45-206.93-105.25z" fill="#d48d77"/><g fill="#eea47d"><path d="m380.58 406.75v72.95c-6.668 3.708-13.507 7.145-20.48 10.25v-83.2z"/><path d="m462.92 406.75c-4.978 6.838-10.303 13.422-15.94 19.73v-19.73z"/><path d="m200.532 406.75v42.24c0 5.66-4.59 10.25-10.25 10.25-5.65 0-10.24-4.59-10.24-10.25v-42.24z"/><path d="m305.71 437.94v69.23c-6.74 1.33-13.57 2.39-20.49 3.17v-72.4c0-5.65 4.59-10.24 10.24-10.24 5.656.004 10.249 4.576 10.25 10.24z"/><path d="m427.21 434.63v11.68c-6.53 5.9-13.37 11.45-20.49 16.63v-28.31c.528-13.576 19.964-13.571 20.49 0z"/><path d="m248.63 406.75v105.14c-6.849-.186-13.674-.653-20.48-1.39v-103.75z"/><path d="m163.68 460.62v34.23c-6.98-2.7-13.81-5.7-20.48-8.98v-25.25c.518-13.58 19.966-13.573 20.48 0z"/><path d="m95.83 407.27v48.44c-7.145-5.736-13.984-11.856-20.48-18.32v-30.12c0-.17 0-.35.01-.52h20.46c.01.18.01.35.01.52z"/></g></g></g><g><g><path d="m280.195 306.72h-48.391c-8.568 0-15.513 6.945-15.513 15.513v63.904h79.417v-63.904c0-8.568-6.945-15.513-15.513-15.513z" fill="#334353"/><path d="m346.984 386.137h-181.968c-9.292 0-16.825 7.533-16.825 16.825 0 9.292 7.533 16.825 16.825 16.825h181.968c9.292 0 16.825-7.533 16.825-16.825-.001-9.293-7.533-16.825-16.825-16.825z" fill="#334353"/><path d="m312.099 386.137h-112.198c-5.729 0-10.374 4.644-10.374 10.374 0 5.729 4.644 10.374 10.374 10.374h112.198c5.729 0 10.374-4.644 10.374-10.374 0-5.73-4.645-10.374-10.374-10.374z" fill="#3e4e60"/><path d="m427.21 123.66v189.84c0 5.176-1.539 10.014-4.197 14.06-3.334 5.176-8.475 9.035-14.549 10.725-2.215.641-4.582.979-6.971.979h-290.986c-2.437 0-4.756-.338-6.971-.979-6.074-1.69-11.215-5.549-14.549-10.725-2.658-4.045-4.197-8.883-4.197-14.06v-189.84c0-2.39.338-4.757.967-6.971 2.402-8.592 9.152-15.377 17.779-17.779 2.215-.63 4.582-.968 6.971-.968h290.985c2.437 0 4.756.338 6.971.968 8.592 2.402 15.377 9.152 17.779 17.779.63 2.215.968 4.581.968 6.971z" fill="#3f5d77"/><path d="m122.294 123.66v189.84c0 5.176-1.539 10.014-4.209 14.06-3.334 5.176-8.475 9.035-14.549 10.725-6.074-1.69-11.215-5.549-14.549-10.725-2.658-4.045-4.197-8.883-4.197-14.06v-189.84c0-11.775 7.904-21.707 18.746-24.75 10.842 3.043 18.758 12.976 18.758 24.75z" fill="#3e4e60"/><path d="m427.21 123.66v189.84c0 5.176-1.539 10.014-4.197 14.06-3.334 5.176-8.475 9.035-14.549 10.725-6.074-1.69-11.215-5.549-14.549-10.725-2.67-4.045-4.209-8.883-4.209-14.06v-189.84c0-11.81 7.951-21.742 18.758-24.75 10.795 3.008 18.746 12.941 18.746 24.75z" fill="#3f6c8e"/><path d="m427.21 286.197v27.303c0 5.176-1.539 10.014-4.197 14.06-3.334 5.176-8.475 9.035-14.549 10.725-2.215.641-4.582.979-6.971.979h-290.986c-2.437 0-4.756-.338-6.971-.979-6.074-1.69-11.215-5.549-14.549-10.725-2.658-4.045-4.197-8.883-4.197-14.06v-27.303z" fill="#3e4e60"/><path d="m122.294 286.197v27.303c0 5.176-1.539 10.014-4.209 14.06-3.334 5.176-8.475 9.035-14.549 10.725-6.074-1.69-11.215-5.549-14.549-10.725-2.658-4.045-4.197-8.883-4.197-14.06v-27.303z" fill="#334353"/><path d="m427.21 286.197v27.303c0 5.176-1.539 10.014-4.197 14.06-3.334 5.176-8.475 9.035-14.549 10.725-6.074-1.69-11.215-5.549-14.549-10.725-2.67-4.045-4.209-8.883-4.209-14.06v-27.303z" fill="#3f5d77"/><path d="m276.481 312.73h-40.962c-5.277 0-9.555 4.278-9.555 9.555 0 5.277 4.278 9.555 9.555 9.555h40.962c5.277 0 9.555-4.278 9.555-9.555 0-5.277-4.278-9.555-9.555-9.555z" fill="#334353"/><path d="m332.358 116.694h-121.87c-5.178 0-9.376-4.198-9.376-9.376 0-5.178 4.198-9.376 9.376-9.376h121.87c5.178 0 9.376 4.198 9.376 9.376 0 5.179-4.198 9.376-9.376 9.376z" fill="#3f6c8e"/><path d="m392.218 305.794h-272.436c-8.969 0-16.24-7.271-16.24-16.24v-156.62c0-8.969 7.271-16.24 16.24-16.24h272.436c8.969 0 16.24 7.271 16.24 16.24v156.62c0 8.969-7.271 16.24-16.24 16.24z" fill="#7063ce"/></g><g><g><circle cx="190.961" cy="210.609" fill="#7d73ff" r="78.064"/><g><g><path d="m261.586 278.386c-3.272 3.272-8.578 3.272-11.85 0l-18.233-18.233c-3.272-3.272-3.272-8.578 0-11.85 3.272-3.272 8.578-3.272 11.85 0l18.233 18.233c3.272 3.273 3.272 8.578 0 11.85z" fill="#f9f2f9"/><path d="m149.482 166.282c-3.272 3.272-8.578 3.272-11.85 0l-18.232-18.232c-3.272-3.272-3.272-8.578 0-11.85 3.272-3.272 8.578-3.272 11.85 0l18.233 18.233c3.271 3.272 3.271 8.577-.001 11.849z" fill="#ebd9ea"/></g><g><path d="m261.586 136.2c3.272 3.272 3.272 8.578 0 11.85l-18.233 18.233c-3.272 3.272-8.578 3.272-11.85 0-3.272-3.272-3.272-8.578 0-11.85l18.233-18.233c3.273-3.272 8.578-3.272 11.85 0z" fill="#f9f2f9"/><path d="m149.482 248.304c3.272 3.272 3.272 8.578 0 11.85l-18.233 18.233c-3.272 3.272-8.578 3.272-11.85 0-3.272-3.272-3.272-8.578 0-11.85l18.233-18.233c3.273-3.272 8.578-3.272 11.85 0z" fill="#ebd9ea"/></g></g><g><g><path d="m243.92 198.765c0 7.802-2.636 15.11-7.231 21.391-2.82 3.858-4.827 8.219-6.009 12.842-1.715 6.736-5.505 12.765-10.72 17.514v17.281c0 4.633-3.751 8.384-8.384 8.384-4.623 0-8.374-3.751-8.374-8.384v-8.045c-1.26.349-2.549.649-3.858.892v7.153c0 4.633-3.751 8.384-8.384 8.384s-8.384-3.751-8.384-8.384v-7.153c-1.308-.242-2.598-.543-3.858-.892v8.045c0 4.633-3.751 8.384-8.374 8.384-4.633 0-8.384-3.751-8.384-8.384v-17.281c-5.214-4.749-9.004-10.778-10.72-17.514-1.182-4.623-3.189-8.985-6.009-12.842-4.594-6.281-7.231-13.589-7.231-21.391 0-23.417 23.708-42.394 52.959-42.394s52.961 18.977 52.961 42.394z" fill="#f9f2f9"/><path d="m243.92 198.765c0 7.802-2.636 15.11-7.231 21.391-2.82 3.858-4.827 8.219-6.009 12.842-1.715 6.736-5.505 12.765-10.72 17.514v17.281c0 4.633-3.751 8.384-8.384 8.384-4.623 0-8.374-3.751-8.374-8.384v-8.045c-1.26.349-2.549.649-3.858.892v7.153c0 4.633-3.751 8.384-8.384 8.384v-119.806c29.253 0 52.96 18.977 52.96 42.394z" fill="#fff"/></g><g><path d="m212.203 201.411h-4.745c-5.515 0-9.985 4.471-9.985 9.985v8.375c0 5.515 4.471 9.985 9.985 9.985h4.745c5.515 0 9.985-4.471 9.985-9.985v-8.375c.001-5.515-4.47-9.985-9.985-9.985z" fill="#3f5d77"/><path d="m176.69 201.411h-4.745c-5.515 0-9.985 4.471-9.985 9.985v8.375c0 5.515 4.471 9.985 9.985 9.985h4.745c5.515 0 9.985-4.471 9.985-9.985v-8.375c0-5.515-4.47-9.985-9.985-9.985z" fill="#3e4e60"/><g><path d="m196.224 249.311h-10.526c-3.421 0-5.563-3.703-3.848-6.678l2.627-4.555 2.627-4.546c.853-1.493 2.355-2.229 3.858-2.229s3.005.737 3.858 2.229l2.627 4.546 2.627 4.555c1.713 2.975-.428 6.678-3.85 6.678z" fill="#3e4e60"/><path d="m196.224 249.311h-5.263v-18.008c1.502 0 3.005.737 3.858 2.229l2.627 4.546 2.627 4.555c1.714 2.975-.427 6.678-3.849 6.678z" fill="#3f5d77"/></g></g></g></g><g><g><path d="m398.534 175.704c0 4.436-3.593 8.029-8.029 8.029h-88.942c-2.224 0-4.228-.892-5.683-2.346-1.454-1.454-2.346-3.459-2.346-5.683 0-4.436 3.593-8.029 8.029-8.029h88.942c2.224 0 4.228.892 5.683 2.346 1.454 1.455 2.346 3.459 2.346 5.683z" fill="#7d73ff"/><path d="m360.748 175.704c0 4.436-3.593 8.029-8.029 8.029h-51.156c-2.224 0-4.228-.892-5.683-2.346-1.454-1.454-2.346-3.459-2.346-5.683 0-4.436 3.593-8.029 8.029-8.029h51.156c2.224 0 4.228.892 5.683 2.346 1.454 1.455 2.346 3.459 2.346 5.683z" fill="#78c795"/></g><g><path d="m398.534 254.894c0 4.436-3.593 8.029-8.029 8.029h-88.942c-2.224 0-4.228-.892-5.683-2.346s-2.346-3.459-2.346-5.683c0-4.436 3.593-8.029 8.029-8.029h88.942c2.224 0 4.228.892 5.683 2.346 1.454 1.455 2.346 3.459 2.346 5.683z" fill="#7d73ff"/><path d="m346.748 254.894c0 4.436-3.593 8.029-8.029 8.029h-37.156c-2.224 0-4.228-.892-5.683-2.346s-2.346-3.459-2.346-5.683c0-4.436 3.593-8.029 8.029-8.029h37.156c2.224 0 4.228.892 5.683 2.346 1.454 1.455 2.346 3.459 2.346 5.683z" fill="#fbcb74"/></g><g><path d="m398.534 215.299c0 4.436-3.593 8.029-8.029 8.029h-88.942c-2.224 0-4.228-.892-5.683-2.346-1.454-1.454-2.346-3.458-2.346-5.683 0-4.436 3.593-8.029 8.029-8.029h88.942c2.224 0 4.228.892 5.683 2.346 1.454 1.455 2.346 3.459 2.346 5.683z" fill="#7d73ff"/><path d="m333.203 215.299c0 4.436-3.593 8.029-8.029 8.029h-23.61c-2.224 0-4.228-.892-5.683-2.346-1.454-1.454-2.346-3.458-2.346-5.683 0-4.436 3.593-8.029 8.029-8.029h23.61c2.224 0 4.228.892 5.683 2.346 1.453 1.455 2.346 3.459 2.346 5.683z" fill="#ea7589"/></g></g></g></g></g></svg>