<svg id="Layer_1" enable-background="new 0 0 512.096 512.096" height="512" viewBox="0 0 512.096 512.096" width="512" xmlns="http://www.w3.org/2000/svg"><g><path d="m445.249 343.175c-6.827-9.542-13.593-17.152-13.877-17.472l-11.196-12.558-11.196 12.558c-.285.319-7.051 7.93-13.877 17.472-10.694 14.948-15.675 26.263-15.675 35.611 0 22.469 18.28 40.749 40.749 40.749s40.748-18.28 40.748-40.749c-.002-9.348-4.982-20.663-15.676-35.611z"/><path d="m381.202 168.711c10.456-15.209 11.967-34.984 3.944-51.606l-16.226-33.611-198.768 198.767 120.145 120.145 108.874-108.874-21.762-38.503c-15.226-26.938-13.737-60.82 3.793-86.318z"/><path d="m148.939 303.474v.001l-29.949 29.949 88.399 88.399 29.949-29.949z"/><path d="m461.999 20.426-9.585-20.426-61.027 61.027 20.775 43.037c12.694 26.297 10.304 57.581-6.239 81.643-11.08 16.118-12.021 37.534-2.398 54.562l17.626 31.184c30.805-32.284 51.109-72.462 58.822-116.543 8.023-45.849 1.807-92.354-17.974-134.484z"/><path d="m58.614 370.859h97.665v125.016h-97.665z" transform="matrix(.707 -.707 .707 .707 -274.965 202.906)"/></g></svg>