<svg id="Capa_1" enable-background="new 0 0 512 512" height="512" viewBox="0 0 512 512" width="512" xmlns="http://www.w3.org/2000/svg"><g><g><path d="m76 376h360v126h-360z" fill="#eefaff"/><path d="m76 10h360v366h-360z" fill="#91def5"/><path d="m376 316v60h-240v-60c0-33.14 26.86-60 60-60l60 60 60-60c33.14 0 60 26.86 60 60z" fill="#ff7b79"/><path d="m316 136v30c0 33.14-26.86 60-60 60s-60-26.86-60-60v-30z" fill="#ffddcf"/><path d="m316 136h-120c0-33.14 26.86-60 60-60s60 26.86 60 60z" fill="#ff7b79"/></g><g><circle cx="376" cy="439" r="10"/><circle cx="316" cy="439" r="10"/><path d="m266 439c0-5.523-4.477-10-10-10h-120c-5.523 0-10 4.477-10 10s4.477 10 10 10h120c5.523 0 10-4.477 10-10z"/><path d="m346 126h-20.726c-4.868-33.877-34.072-60-69.274-60-38.598 0-70 31.402-70 70v30c0 38.598 31.402 70 70 70s70-31.402 70-70v-20h20c5.523 0 10-4.477 10-10s-4.477-10-10-10zm-90-40c24.146 0 44.348 17.205 48.994 40h-97.988c4.646-22.795 24.848-40 48.994-40zm50 80c0 27.57-22.43 50-50 50s-50-22.43-50-50v-20h100z"/><circle cx="256.001" cy="502" r="10"/><path d="m291.001 502c0 5.523 4.477 10 10 10h134.999c5.523 0 10-4.477 10-10v-492c0-5.523-4.477-10-10-10h-360c-5.523 0-10 4.477-10 10v492c0 5.523 4.477 10 10 10h135.001c5.523 0 10-4.477 10-10s-4.477-10-10-10h-125.001v-106h340v106h-124.999c-5.523 0-10 4.477-10 10zm74.999-136h-220v-50c0-26.229 20.301-47.806 46.015-49.843l56.914 56.914c3.905 3.905 10.237 3.905 14.143 0l56.914-56.914c25.713 2.037 46.014 23.614 46.014 49.843zm20 0v-50c0-38.598-31.402-70-70-70-2.652 0-5.196 1.054-7.071 2.929l-52.929 52.929-52.929-52.929c-1.875-1.875-4.419-2.929-7.071-2.929-38.598 0-70 31.402-70 70v50h-40v-346h340v346z"/></g></g></svg>