<?xml version="1.0" encoding="utf-8"?>
<!-- Generator: Adobe Illustrator 16.0.0, SVG Export Plug-In . SVG Version: 6.00 Build 0)  -->
<!DOCTYPE svg PUBLIC "-//W3C//DTD SVG 1.1//EN" "http://www.w3.org/Graphics/SVG/1.1/DTD/svg11.dtd">
<svg version="1.1" id="Layer_1" xmlns="http://www.w3.org/2000/svg" xmlns:xlink="http://www.w3.org/1999/xlink" x="0px" y="0px"
	 width="500px" height="500px" viewBox="0 0 500 500" enable-background="new 0 0 500 500" xml:space="preserve">
<g>
	<path fill="#FFFFFF" d="M226.435,281.12c-7.412,0-14.998,0.232-22.559-0.103c-3.535-0.156-5.127-2.428-4.117-6.29
		c2.729-10.431,5.259-20.914,7.878-31.374c0.646-2.576,1.522-5.109,1.958-7.718c0.774-4.636-0.508-8.397-4.708-11.163
		c-1.557-1.025-2.383-3.16-3.542-4.789c0.344-0.469,0.688-0.937,1.031-1.405c1.766,0,3.531,0.001,5.296,0
		c29.787-0.01,59.574-0.021,89.361-0.019c1.158,0,2.605-0.25,3.403,0.327c1.036,0.751,2.133,2.219,2.126,3.371
		c-0.007,1.025-1.418,2.844-2.321,2.917c-3.025,0.242-5.782,0.263-7.511,3.489c-0.413,0.772-2.403,0.888-3.69,0.972
		c-4.646,0.303-9.302,0.492-13.955,0.67c-6.368,0.243-7.787,1.613-8.118,7.972c-0.411,7.91-0.415,8.095-8.346,7.919
		c-6.129-0.137-12.242-1.005-18.371-1.119c-1.726-0.031-4.697,1.106-5.033,2.293C232.103,258.07,229.439,269.198,226.435,281.12z
		 M243.185,233.081c-2.598,5.275-2.002,9.538,1.832,9.87c5.12,0.445,10.337,0.618,15.444,0.152c5.09-0.465,4.493-5.167,4.701-8.574
		c0.199-3.247-2.422-3.769-5.219-3.81c-11.677-0.169-11.677-0.214-8.857,11.181C248.514,239.029,245.942,236.159,243.185,233.081z"
		/>
	<path fill="#FFFFFF" d="M209.753,201.901c0.851,0.114,1.785-0.045,2.106,0.326c4.367,5.049,10.226,3.807,15.764,3.812
		c20.147,0.022,40.296,0.065,60.442-0.114c1.723-0.016,3.355-1.883,5.17-2.398c1.497-0.426,3.774-0.81,4.712-0.024
		c3.893,3.257,2.609,7.757,2.506,12.241c-32.465,0-64.525,0-96.217,0C201.411,209.327,207.435,206.625,209.753,201.901z"/>
</g>
</svg>
