<?xml version="1.0" encoding="utf-8"?>
<!-- Generator: Adobe Illustrator 16.0.0, SVG Export Plug-In . SVG Version: 6.00 Build 0)  -->
<!DOCTYPE svg PUBLIC "-//W3C//DTD SVG 1.1//EN" "http://www.w3.org/Graphics/SVG/1.1/DTD/svg11.dtd">
<svg version="1.1" id="Layer_1" xmlns="http://www.w3.org/2000/svg" xmlns:xlink="http://www.w3.org/1999/xlink" x="0px" y="0px"
	 width="1790.91px" height="235.488px" viewBox="0 0 1790.91 235.488" enable-background="new 0 0 1790.91 235.488"
	 xml:space="preserve">
<g>
	<g>
		<g>
			<g>
				<g display="none">
					<linearGradient id="SVGID_1_" gradientUnits="userSpaceOnUse" x1="888.147" y1="-34.0542" x2="888.147" y2="145.2478">
						<stop  offset="0.1522" style="stop-color:#FFCCFF"/>
						<stop  offset="0.281" style="stop-color:#D980EC"/>
						<stop  offset="0.4088" style="stop-color:#B73BDB"/>
						<stop  offset="0.5005" style="stop-color:#A110D0"/>
						<stop  offset="0.5472" style="stop-color:#9900CC"/>
						<stop  offset="0.5504" style="stop-color:#9600C8"/>
						<stop  offset="0.592" style="stop-color:#730099"/>
						<stop  offset="0.6361" style="stop-color:#540070"/>
						<stop  offset="0.6823" style="stop-color:#3A004E"/>
						<stop  offset="0.7309" style="stop-color:#250031"/>
						<stop  offset="0.7829" style="stop-color:#15001B"/>
						<stop  offset="0.8399" style="stop-color:#09000C"/>
						<stop  offset="0.9056" style="stop-color:#020003"/>
						<stop  offset="1" style="stop-color:#000000"/>
					</linearGradient>
					<polygon display="inline" fill="url(#SVGID_1_)" points="1018.207,39.846 981.317,-6.455 794.978,-6.455 758.088,39.846 					
						"/>
					<linearGradient id="SVGID_2_" gradientUnits="userSpaceOnUse" x1="888.147" y1="-18.5918" x2="888.147" y2="98.4675">
						<stop  offset="0" style="stop-color:#B3FFFD"/>
						<stop  offset="0.0734" style="stop-color:#000000"/>
						<stop  offset="0.1401" style="stop-color:#030005"/>
						<stop  offset="0.2213" style="stop-color:#0A0014"/>
						<stop  offset="0.31" style="stop-color:#16002D"/>
						<stop  offset="0.4034" style="stop-color:#27004F"/>
						<stop  offset="0.4508" style="stop-color:#310063"/>
						<stop  offset="0.4821" style="stop-color:#390471"/>
						<stop  offset="0.541" style="stop-color:#4F0E95"/>
						<stop  offset="0.6207" style="stop-color:#711DD0"/>
						<stop  offset="0.6751" style="stop-color:#8B29FC"/>
					</linearGradient>
					<polygon display="inline" fill="url(#SVGID_2_)" points="1011.277,39.846 978.744,-0.903 797.734,-0.903 765.018,39.846 					
						"/>
					<g display="inline">
						<g>
							<defs>
								<polyline id="SVGID_3_" points="1103.017,6.478 673.278,6.478 673.278,219.478 1103.017,219.478 1103.017,6.478 								"/>
							</defs>
							<clipPath id="SVGID_4_">
								<use xlink:href="#SVGID_3_"  overflow="visible"/>
							</clipPath>
							<g clip-path="url(#SVGID_4_)">
								
									<image overflow="visible" width="1795" height="892" xlink:href="B38C23E0B64E021A.png"  transform="matrix(0.24 0 0 0.24 672.8115 6.0103)">
								</image>
							</g>
						</g>
					</g>
					<g display="inline">
						<linearGradient id="SVGID_5_" gradientUnits="userSpaceOnUse" x1="888.1479" y1="163.2632" x2="888.1479" y2="-7.5785">
							<stop  offset="0" style="stop-color:#191B21"/>
							<stop  offset="0.1913" style="stop-color:#40444D"/>
							<stop  offset="0.4195" style="stop-color:#747987"/>
							<stop  offset="0.5052" style="stop-color:#717684"/>
							<stop  offset="0.5808" style="stop-color:#686C79"/>
							<stop  offset="0.6527" style="stop-color:#585C67"/>
							<stop  offset="0.7221" style="stop-color:#42454D"/>
							<stop  offset="0.79" style="stop-color:#26282C"/>
							<stop  offset="0.8557" style="stop-color:#040405"/>
							<stop  offset="0.8629" style="stop-color:#000000"/>
						</linearGradient>
						<polygon fill-rule="evenodd" clip-rule="evenodd" fill="url(#SVGID_5_)" points="1056.016,34.029 1056.016,59.32 
							981.317,153.078 794.978,153.078 720.279,59.32 720.279,34.029 						"/>
						<linearGradient id="SVGID_6_" gradientUnits="userSpaceOnUse" x1="888.147" y1="19.5391" x2="888.147" y2="267.1677">
							<stop  offset="0.1925" style="stop-color:#2E313B"/>
							<stop  offset="0.3533" style="stop-color:#2B2E37"/>
							<stop  offset="0.5118" style="stop-color:#22242B"/>
							<stop  offset="0.6688" style="stop-color:#121418"/>
							<stop  offset="0.8048" style="stop-color:#000000"/>
						</linearGradient>
						<polygon fill-rule="evenodd" clip-rule="evenodd" fill="url(#SVGID_6_)" points="1051.751,38.312 724.544,38.312 
							724.544,57.813 797.036,148.796 979.259,148.796 1051.751,57.813 						"/>
						<polygon fill-rule="evenodd" clip-rule="evenodd" stroke="#000000" stroke-width="0.5102" stroke-miterlimit="10" points="
							1043.186,46.858 733.109,46.858 733.109,54.817 801.153,140.23 975.142,140.23 1043.186,54.817 						"/>
						<linearGradient id="SVGID_7_" gradientUnits="userSpaceOnUse" x1="862.5259" y1="178.0498" x2="903.1164" y2="-21.5196">
							<stop  offset="0" style="stop-color:#C7FFFF"/>
							<stop  offset="0.1062" style="stop-color:#9ECACA"/>
							<stop  offset="0.2278" style="stop-color:#749595"/>
							<stop  offset="0.3511" style="stop-color:#516868"/>
							<stop  offset="0.4735" style="stop-color:#344242"/>
							<stop  offset="0.595" style="stop-color:#1D2525"/>
							<stop  offset="0.7153" style="stop-color:#0D1111"/>
							<stop  offset="0.8339" style="stop-color:#030404"/>
							<stop  offset="0.9489" style="stop-color:#000000"/>
						</linearGradient>
						<path fill-rule="evenodd" clip-rule="evenodd" fill="url(#SVGID_7_)" d="M748.695,68.29
							c22.535-1.287,63.725,1.066,130.997,18.362c17.333,4.448,33.691,8.161,49.094,11.193c25.071,4.926,47.605,8.032,67.714,9.503
							l42.899-53.854v-2.831H928.786H736.896v2.831L748.695,68.29z"/>
					</g>
					<linearGradient id="SVGID_8_" gradientUnits="userSpaceOnUse" x1="888.147" y1="77.4546" x2="888.147" y2="159.989">
						<stop  offset="0" style="stop-color:#FFCCFF"/>
						<stop  offset="0.0511" style="stop-color:#FF47FF"/>
						<stop  offset="0.213" style="stop-color:#E53DEC"/>
						<stop  offset="0.559" style="stop-color:#A424BC"/>
						<stop  offset="1" style="stop-color:#480179"/>
					</linearGradient>
					<path display="inline" fill-rule="evenodd" clip-rule="evenodd" fill="url(#SVGID_8_)" d="M829.183,84.23
						c-9.76,0-15.146,6.396-15.146,17.92c0,11.488,5.385,17.866,15.146,17.866s15.146-6.378,15.146-17.866
						C844.329,90.626,838.943,84.23,829.183,84.23L829.183,84.23z M829.183,89.579c5.533,0,8.198,3.86,8.198,12.572
						c0,8.602-2.665,12.591-8.198,12.591s-8.198-3.989-8.198-12.591C820.985,93.439,823.65,89.579,829.183,89.579L829.183,89.579z
						 M864.712,84.23c-9.76,0-15.146,6.396-15.146,17.92c0,11.488,5.386,17.866,15.146,17.866c9.778,0,15.164-6.378,15.164-17.866
						C879.876,90.626,874.491,84.23,864.712,84.23L864.712,84.23z M864.712,89.579c5.551,0,8.216,3.86,8.216,12.572
						c0,8.602-2.666,12.591-8.216,12.591c-5.533,0-8.198-3.989-8.198-12.591C856.515,93.439,859.18,89.579,864.712,89.579
						L864.712,89.579z M888.074,98.034c-1.966,0-3.418,1.452-3.418,3.566s1.452,3.676,3.418,3.676c2.003,0,3.474-1.562,3.474-3.676
						S890.077,98.034,888.074,98.034L888.074,98.034z M888.074,112.977c-1.966,0-3.418,1.452-3.418,3.566s1.452,3.676,3.418,3.676
						c2.003,0,3.474-1.562,3.474-3.676S890.077,112.977,888.074,112.977L888.074,112.977z M911.582,84.23
						c-9.76,0-15.145,6.396-15.145,17.92c0,11.488,5.385,17.866,15.145,17.866s15.146-6.378,15.146-17.866
						C926.728,90.626,921.342,84.23,911.582,84.23L911.582,84.23z M911.582,89.579c5.533,0,8.198,3.86,8.198,12.572
						c0,8.602-2.665,12.591-8.198,12.591c-5.532,0-8.216-3.989-8.216-12.591C903.366,93.439,906.05,89.579,911.582,89.579
						L911.582,89.579z M947.111,84.23c-9.76,0-15.146,6.396-15.146,17.92c0,11.488,5.386,17.866,15.146,17.866
						s15.146-6.378,15.146-17.866C962.257,90.626,956.871,84.23,947.111,84.23L947.111,84.23z M947.111,89.579
						c5.532,0,8.198,3.86,8.198,12.572c0,8.602-2.666,12.591-8.198,12.591s-8.197-3.989-8.197-12.591
						C938.914,93.439,941.579,89.579,947.111,89.579L947.111,89.579z"/>
					<g display="inline">
						<linearGradient id="SVGID_9_" gradientUnits="userSpaceOnUse" x1="888.147" y1="-6.9092" x2="888.147" y2="92.6459">
							<stop  offset="0.1522" style="stop-color:#FFCCFF"/>
							<stop  offset="0.281" style="stop-color:#FF80FF"/>
							<stop  offset="0.4088" style="stop-color:#FF3BFF"/>
							<stop  offset="0.5005" style="stop-color:#FF10FF"/>
							<stop  offset="0.5472" style="stop-color:#FF00FF"/>
							<stop  offset="0.5486" style="stop-color:#FD00FD"/>
							<stop  offset="0.5855" style="stop-color:#C800C8"/>
							<stop  offset="0.6239" style="stop-color:#9A009A"/>
							<stop  offset="0.6646" style="stop-color:#700070"/>
							<stop  offset="0.7072" style="stop-color:#4E004E"/>
							<stop  offset="0.752" style="stop-color:#310031"/>
							<stop  offset="0.7999" style="stop-color:#1B001B"/>
							<stop  offset="0.8524" style="stop-color:#0C000C"/>
							<stop  offset="0.913" style="stop-color:#030003"/>
							<stop  offset="1" style="stop-color:#000000"/>
						</linearGradient>
						<path fill-rule="evenodd" clip-rule="evenodd" fill="url(#SVGID_9_)" d="M811.828,10.606v2.963h4.678v12.449h3.483V13.569
							h4.704v-2.963H811.828z M826.564,10.606v15.412h11.981v-2.885h-8.499v-3.405h7.407v-2.885h-7.407v-3.353h8.265v-2.885H826.564
							z M840.131,10.606l5.146,7.537l-5.51,7.875h4.054l3.561-5.12l3.638,5.12h4.159l-5.562-8.031l5.12-7.381h-4.106l-3.249,4.704
							l-3.197-4.704H840.131z M855.621,10.606v2.963h4.678v12.449h3.482V13.569h4.704v-2.963H855.621z M885.665,14.895l1.326-2.885
							c-1.533-1.014-3.69-1.689-5.848-1.689c-3.561,0-5.952,1.793-5.952,4.6c0,5.536,8.187,3.821,8.187,6.783
							c0,0.988-0.857,1.534-2.287,1.534c-1.611,0-3.872-0.91-5.458-2.339l-1.377,2.859c1.741,1.481,4.262,2.443,6.809,2.443
							c3.405,0,6.03-1.638,6.03-4.678c0.026-5.614-8.187-4.002-8.187-6.914c0-0.857,0.779-1.299,1.949-1.299
							C882.104,13.31,884.028,13.907,885.665,14.895L885.665,14.895z M900.688,15.441l2.027-2.495
							c-1.534-1.585-3.847-2.573-6.082-2.573c-4.652,0-8.212,3.405-8.212,7.901c0,4.522,3.482,7.979,8.083,7.979
							c2.235,0,4.601-1.065,6.238-2.781l-2.053-2.209c-1.092,1.117-2.625,1.819-4.002,1.819c-2.651,0-4.678-2.131-4.678-4.86
							s2.027-4.808,4.678-4.808C898.114,13.414,899.622,14.167,900.688,15.441L900.688,15.441z M911.682,10.373
							c-4.705,0-8.265,3.379-8.265,7.927c0,4.522,3.56,7.953,8.265,7.953c4.704,0,8.29-3.457,8.29-7.953
							C919.972,13.777,916.386,10.373,911.682,10.373L911.682,10.373z M911.733,13.414c2.573,0,4.652,2.131,4.652,4.886
							s-2.079,4.912-4.652,4.912s-4.757-2.157-4.757-4.912S909.135,13.414,911.733,13.414L911.733,13.414z M935.644,26.019
							l-3.274-5.094c1.871-0.884,2.885-2.599,2.885-4.964c0-3.405-2.287-5.354-6.315-5.354h-6.68v15.412h3.457v-4.418h3.223h0.338
							l2.443,4.418H935.644z M925.716,13.492h3.223c1.923,0,3.015,0.857,3.015,2.573c0,1.768-1.092,2.651-3.015,2.651h-3.223V13.492
							z M938.191,10.606v15.412h11.955v-2.885h-8.499v-3.405h7.434v-2.885h-7.434v-3.353h8.265v-2.885H938.191z M963.037,14.895
							l1.326-2.885c-1.533-1.014-3.691-1.689-5.849-1.689c-3.56,0-5.951,1.793-5.951,4.6c0,5.536,8.187,3.821,8.187,6.783
							c0,0.988-0.857,1.534-2.287,1.534c-1.611,0-3.872-0.91-5.458-2.339l-1.377,2.859c1.741,1.481,4.263,2.443,6.81,2.443
							c3.404,0,6.029-1.638,6.029-4.678c0-5.614-8.187-4.002-8.187-6.914c0-0.857,0.779-1.299,1.949-1.299
							C959.451,13.31,961.4,13.907,963.037,14.895L963.037,14.895z"/>
					</g>
				</g>
				<g>
					<g>
						<g>
							<defs>
								<polyline id="SVGID_10_" points="1783.096,46.272 932.912,46.272 932.912,224.569 1675.096,224.569 1783.096,46.272 
																	"/>
							</defs>
							<clipPath id="SVGID_11_">
								<use xlink:href="#SVGID_10_"  overflow="visible"/>
							</clipPath>
							<g clip-path="url(#SVGID_11_)">
								<defs>
									<polygon id="SVGID_12_" points="931.6,44.886 931.6,225.947 1676.413,225.947 1784.413,44.886 									"/>
								</defs>
								<clipPath id="SVGID_13_">
									<use xlink:href="#SVGID_12_"  overflow="visible"/>
								</clipPath>
								<g clip-path="url(#SVGID_13_)">
									<defs>
										<polygon id="SVGID_14_" points="931.598,44.886 931.598,225.948 1676.41,225.948 1784.41,44.886 										"/>
									</defs>
									<clipPath id="SVGID_15_">
										<use xlink:href="#SVGID_14_"  overflow="visible"/>
									</clipPath>
									<g clip-path="url(#SVGID_15_)">
										
											<image overflow="visible" width="3554" height="755" xlink:href="B38C23E0B64E021E.png"  transform="matrix(0.24 0 0 0.24 931.5977 44.8862)">
										</image>
									</g>
								</g>
							</g>
						</g>
					</g>
					<g>
						<g>
							<g>
								<defs>
									<polyline id="SVGID_16_" points="963.106,32.484 1394.422,32.484 1394.422,131.136 963.106,131.136 963.106,32.484 
																			"/>
								</defs>
								<clipPath id="SVGID_17_">
									<use xlink:href="#SVGID_16_"  overflow="visible"/>
								</clipPath>
								<g clip-path="url(#SVGID_17_)">
									<defs>
										<rect id="SVGID_18_" x="962.341" y="31.717" width="432.843" height="100.181"/>
									</defs>
									<clipPath id="SVGID_19_">
										<use xlink:href="#SVGID_18_"  overflow="visible"/>
									</clipPath>
									<g clip-path="url(#SVGID_19_)">
										<defs>
											<rect id="SVGID_20_" x="962.342" y="31.717" width="432.844" height="100.181"/>
										</defs>
										<clipPath id="SVGID_21_">
											<use xlink:href="#SVGID_20_"  overflow="visible"/>
										</clipPath>
										<g clip-path="url(#SVGID_21_)">
											
												<image overflow="visible" width="1804" height="418" xlink:href="B38C23E0B64E0219.png"  transform="matrix(0.24 0 0 0.24 962.3418 31.7173)">
											</image>
										</g>
									</g>
								</g>
							</g>
						</g>
						
							<radialGradient id="SVGID_22_" cx="2120.1846" cy="163.3423" r="154.6414" gradientTransform="matrix(1 0 0 1 -890.918 0)" gradientUnits="userSpaceOnUse">
							<stop  offset="0.573" style="stop-color:#FFCCFF"/>
							<stop  offset="0.6446" style="stop-color:#FDC9FE"/>
							<stop  offset="0.7053" style="stop-color:#F8BEFC"/>
							<stop  offset="0.7622" style="stop-color:#EFADF7"/>
							<stop  offset="0.8166" style="stop-color:#E394F1"/>
							<stop  offset="0.8693" style="stop-color:#D374E9"/>
							<stop  offset="0.9207" style="stop-color:#BF4DDF"/>
							<stop  offset="0.9702" style="stop-color:#A91FD4"/>
							<stop  offset="1" style="stop-color:#9900CC"/>
						</radialGradient>
						<polygon fill="url(#SVGID_22_)" points="1348.835,93.394 1319.471,57.021 978.301,57.021 1005.425,93.394 						"/>
						
							<linearGradient id="SVGID_23_" gradientUnits="userSpaceOnUse" x1="2056.2705" y1="38.0518" x2="2056.2705" y2="173.3703" gradientTransform="matrix(1 0 0 1 -890.918 0)">
							<stop  offset="0" style="stop-color:#FFDDFD"/>
							<stop  offset="0.0511" style="stop-color:#FF00FF"/>
							<stop  offset="0.1719" style="stop-color:#E500FB"/>
							<stop  offset="0.4302" style="stop-color:#A400F2"/>
							<stop  offset="0.8021" style="stop-color:#3B01E3"/>
							<stop  offset="1" style="stop-color:#0101DB"/>
						</linearGradient>
						<polygon fill="url(#SVGID_23_)" points="1342.274,93.218 1317.039,62.093 988.431,62.093 1011.698,93.394 						"/>
						
							<radialGradient id="SVGID_24_" cx="-49096.4297" cy="-4492.126" r="76.7443" gradientTransform="matrix(0.0023 0.1005 2.2803 -0.0274 11510.5312 4874.2109)" gradientUnits="userSpaceOnUse">
							<stop  offset="0.1522" style="stop-color:#FFC2FF"/>
							<stop  offset="0.281" style="stop-color:#B37AC6"/>
							<stop  offset="0.4088" style="stop-color:#6E3892"/>
							<stop  offset="0.5005" style="stop-color:#431072"/>
							<stop  offset="0.5472" style="stop-color:#330066"/>
							<stop  offset="0.5913" style="stop-color:#27004D"/>
							<stop  offset="0.6533" style="stop-color:#190031"/>
							<stop  offset="0.7203" style="stop-color:#0E001B"/>
							<stop  offset="0.7936" style="stop-color:#06000C"/>
							<stop  offset="0.8783" style="stop-color:#010003"/>
							<stop  offset="1" style="stop-color:#000000"/>
						</radialGradient>
						<path fill="url(#SVGID_24_)" d="M1154.395,70.814c96.668-1.16,174.951-5.552,174.852-9.811
							c-0.099-4.259-78.543-6.771-175.211-5.611c-96.667,1.16-174.951,5.552-174.852,9.811
							C979.282,69.462,1057.728,71.974,1154.395,70.814z"/>
					</g>
					
						<linearGradient id="SVGID_25_" gradientUnits="userSpaceOnUse" x1="2237.3047" y1="177.6538" x2="2237.3047" y2="58.6686" gradientTransform="matrix(1 0 0 1 -890.918 0)">
						<stop  offset="0" style="stop-color:#191B21"/>
						<stop  offset="0.2478" style="stop-color:#3C404D"/>
						<stop  offset="0.4809" style="stop-color:#5F667A"/>
						<stop  offset="0.5686" style="stop-color:#5C6377"/>
						<stop  offset="0.646" style="stop-color:#545A6C"/>
						<stop  offset="0.7195" style="stop-color:#464B5A"/>
						<stop  offset="0.7905" style="stop-color:#323640"/>
						<stop  offset="0.8593" style="stop-color:#191B20"/>
						<stop  offset="0.9143" style="stop-color:#000000"/>
					</linearGradient>
					<polygon fill="url(#SVGID_25_)" points="1722.603,88.305 1557.25,159.356 970.172,159.356 1026.756,88.305 					"/>
					
						<linearGradient id="SVGID_26_" gradientUnits="userSpaceOnUse" x1="2234.2246" y1="85.2148" x2="2234.2246" y2="222.4172" gradientTransform="matrix(1 0 0 1 -890.918 0)">
						<stop  offset="0.1925" style="stop-color:#2E313B"/>
						<stop  offset="0.3261" style="stop-color:#2B2E37"/>
						<stop  offset="0.4578" style="stop-color:#22242B"/>
						<stop  offset="0.5882" style="stop-color:#121418"/>
						<stop  offset="0.7012" style="stop-color:#000000"/>
					</linearGradient>
					<polygon fill="url(#SVGID_26_)" points="974.028,154.523 1554.93,154.523 1712.585,93.218 1022.867,93.218 					"/>
					<g>
						<g>
							
								<radialGradient id="SVGID_27_" cx="2529.8271" cy="117.8442" r="91.0732" gradientTransform="matrix(1 0 0 1 -890.918 0)" gradientUnits="userSpaceOnUse">
								<stop  offset="0" style="stop-color:#FFCCFF"/>
								<stop  offset="0.1676" style="stop-color:#FDC9FE"/>
								<stop  offset="0.3099" style="stop-color:#F8BEFC"/>
								<stop  offset="0.4429" style="stop-color:#EFADF7"/>
								<stop  offset="0.5704" style="stop-color:#E394F1"/>
								<stop  offset="0.6939" style="stop-color:#D374E9"/>
								<stop  offset="0.8143" style="stop-color:#BF4DDF"/>
								<stop  offset="0.9302" style="stop-color:#A91FD4"/>
								<stop  offset="1" style="stop-color:#9900CC"/>
							</radialGradient>
							<polygon fill-rule="evenodd" clip-rule="evenodd" fill="url(#SVGID_27_)" points="1500.369,167.949 1707.653,167.949 
								1730.055,77.014 1522.796,77.014 							"/>
							
								<linearGradient id="SVGID_28_" gradientUnits="userSpaceOnUse" x1="2535.4082" y1="16.8223" x2="2467.6199" y2="261.425" gradientTransform="matrix(1 0 0 1 -890.918 0)">
								<stop  offset="0" style="stop-color:#B3FFFD"/>
								<stop  offset="0.0996" style="stop-color:#FF00FF"/>
								<stop  offset="0.1913" style="stop-color:#FA00FE"/>
								<stop  offset="0.3029" style="stop-color:#EB00FC"/>
								<stop  offset="0.4249" style="stop-color:#D200F9"/>
								<stop  offset="0.5544" style="stop-color:#B000F4"/>
								<stop  offset="0.6898" style="stop-color:#8300ED"/>
								<stop  offset="0.8301" style="stop-color:#4D01E6"/>
								<stop  offset="0.9719" style="stop-color:#0E01DD"/>
								<stop  offset="1" style="stop-color:#0101DB"/>
							</linearGradient>
							<polygon fill-rule="evenodd" clip-rule="evenodd" fill="url(#SVGID_28_)" points="1503.693,165.34 1705.607,165.34 
								1726.729,79.597 1524.816,79.597 							"/>
							
								<linearGradient id="SVGID_29_" gradientUnits="userSpaceOnUse" x1="2534.0254" y1="23.4072" x2="2470.2966" y2="253.3616" gradientTransform="matrix(1 0 0 1 -890.918 0)">
								<stop  offset="0" style="stop-color:#B3FFFD"/>
								<stop  offset="0.0996" style="stop-color:#000000"/>
								<stop  offset="0.1996" style="stop-color:#050005"/>
								<stop  offset="0.3213" style="stop-color:#130014"/>
								<stop  offset="0.4544" style="stop-color:#2B002D"/>
								<stop  offset="0.5955" style="stop-color:#4D004F"/>
								<stop  offset="0.743" style="stop-color:#78017B"/>
								<stop  offset="0.8936" style="stop-color:#AB01B1"/>
								<stop  offset="1" style="stop-color:#D401DB"/>
							</linearGradient>
							<polygon fill-rule="evenodd" clip-rule="evenodd" fill="url(#SVGID_29_)" points="1508.385,162.377 1703.244,162.377 
								1722.779,83.075 1527.921,83.075 							"/>
							
								<radialGradient id="SVGID_30_" cx="-12951.8965" cy="-4190.0054" r="73.0066" gradientTransform="matrix(0.1308 0.0337 0.2272 -0.871 4158.2021 -3084.7358)" gradientUnits="userSpaceOnUse">
								<stop  offset="0" style="stop-color:#FFFFFF"/>
								<stop  offset="0.05" style="stop-color:#E5DEEB"/>
								<stop  offset="0.1999" style="stop-color:#9A80B3"/>
								<stop  offset="0.3215" style="stop-color:#623B89"/>
								<stop  offset="0.4088" style="stop-color:#401070"/>
								<stop  offset="0.4531" style="stop-color:#330066"/>
								<stop  offset="0.5064" style="stop-color:#27004D"/>
								<stop  offset="0.5813" style="stop-color:#190031"/>
								<stop  offset="0.6622" style="stop-color:#0E001B"/>
								<stop  offset="0.7508" style="stop-color:#06000C"/>
								<stop  offset="0.853" style="stop-color:#010003"/>
								<stop  offset="1" style="stop-color:#000000"/>
							</radialGradient>
							<path fill="url(#SVGID_30_)" d="M1521.673,130.737c9.164-35.125,12.318-64.701,7.045-66.059s-16.977,26.017-26.141,61.143
								c-9.164,35.125-12.317,64.701-7.045,66.059C1500.806,193.237,1512.51,165.863,1521.673,130.737z"/>
							
								<radialGradient id="SVGID_31_" cx="-16584.6309" cy="-4347.5186" r="306.2982" gradientTransform="matrix(0.0516 -0.0411 -0.3153 -0.396 1189.0896 -2308.1257)" gradientUnits="userSpaceOnUse">
								<stop  offset="0" style="stop-color:#FFFFFF"/>
								<stop  offset="0.05" style="stop-color:#F2DEFF"/>
								<stop  offset="0.1999" style="stop-color:#CC80FF"/>
								<stop  offset="0.3215" style="stop-color:#B13BFF"/>
								<stop  offset="0.4088" style="stop-color:#A010FF"/>
								<stop  offset="0.4531" style="stop-color:#9900FF"/>
								<stop  offset="0.4549" style="stop-color:#9800FD"/>
								<stop  offset="0.4994" style="stop-color:#7800C8"/>
								<stop  offset="0.5458" style="stop-color:#5C009A"/>
								<stop  offset="0.595" style="stop-color:#430070"/>
								<stop  offset="0.6464" style="stop-color:#2F004E"/>
								<stop  offset="0.7005" style="stop-color:#1E0031"/>
								<stop  offset="0.7584" style="stop-color:#10001B"/>
								<stop  offset="0.8218" style="stop-color:#07000C"/>
								<stop  offset="0.8949" style="stop-color:#020003"/>
								<stop  offset="1" style="stop-color:#000000"/>
							</radialGradient>
							<path fill="url(#SVGID_31_)" d="M1721.656,72.347c-12.713-15.972-24.704-27.576-26.782-25.917s6.543,15.951,19.256,31.923
								c12.714,15.972-5.753,71.25-3.675,69.591C1712.534,146.285,1734.37,88.319,1721.656,72.347z"/>
						</g>
					</g>
				</g>
				<g>
					<g>
						<g>
							<defs>
								<polyline id="SVGID_32_" points="9.07,46.272 859.254,46.272 859.254,224.569 117.07,224.569 9.07,46.272 								"/>
							</defs>
							<clipPath id="SVGID_33_">
								<use xlink:href="#SVGID_32_"  overflow="visible"/>
							</clipPath>
							<g clip-path="url(#SVGID_33_)">
								<defs>
									<polygon id="SVGID_34_" points="860.566,44.886 860.566,225.947 115.752,225.947 7.752,44.886 									"/>
								</defs>
								<clipPath id="SVGID_35_">
									<use xlink:href="#SVGID_34_"  overflow="visible"/>
								</clipPath>
								<g clip-path="url(#SVGID_35_)">
									<defs>
										<polygon id="SVGID_36_" points="860.568,44.886 860.568,225.948 115.755,225.948 7.755,44.886 										"/>
									</defs>
									<clipPath id="SVGID_37_">
										<use xlink:href="#SVGID_36_"  overflow="visible"/>
									</clipPath>
									<g transform="matrix(1 0 0 1 4.768372e-07 0)" clip-path="url(#SVGID_37_)">
										
											<image overflow="visible" width="3554" height="755" xlink:href="B38C23E0B64E021B.png"  transform="matrix(0.24 0 0 0.24 7.7544 44.8862)">
										</image>
									</g>
								</g>
							</g>
						</g>
					</g>
					<g>
						<g>
							<g>
								<defs>
									<polyline id="SVGID_38_" points="829.059,32.484 397.744,32.484 397.744,131.136 829.059,131.136 829.059,32.484 									
										"/>
								</defs>
								<clipPath id="SVGID_39_">
									<use xlink:href="#SVGID_38_"  overflow="visible"/>
								</clipPath>
								<g clip-path="url(#SVGID_39_)">
									<defs>
										<rect id="SVGID_40_" x="396.982" y="31.717" width="432.843" height="100.181"/>
									</defs>
									<clipPath id="SVGID_41_">
										<use xlink:href="#SVGID_40_"  overflow="visible"/>
									</clipPath>
									<g clip-path="url(#SVGID_41_)">
										<defs>
											<rect id="SVGID_42_" x="396.98" y="31.717" width="432.844" height="100.181"/>
										</defs>
										<clipPath id="SVGID_43_">
											<use xlink:href="#SVGID_42_"  overflow="visible"/>
										</clipPath>
										<g clip-path="url(#SVGID_43_)">
											
												<image overflow="visible" width="1804" height="418" xlink:href="B38C23E0B64E0218.png"  transform="matrix(0.24 0 0 0.24 396.98 31.7173)">
											</image>
										</g>
									</g>
								</g>
							</g>
						</g>
						
							<radialGradient id="SVGID_44_" cx="3011.2061" cy="163.3423" r="154.6423" gradientTransform="matrix(-1 0 0 1 3574.1055 0)" gradientUnits="userSpaceOnUse">
							<stop  offset="0.573" style="stop-color:#FFCCFF"/>
							<stop  offset="0.6446" style="stop-color:#FDC9FE"/>
							<stop  offset="0.7053" style="stop-color:#F8BEFC"/>
							<stop  offset="0.7622" style="stop-color:#EFADF7"/>
							<stop  offset="0.8166" style="stop-color:#E394F1"/>
							<stop  offset="0.8693" style="stop-color:#D374E9"/>
							<stop  offset="0.9207" style="stop-color:#BF4DDF"/>
							<stop  offset="0.9702" style="stop-color:#A91FD4"/>
							<stop  offset="1" style="stop-color:#9900CC"/>
						</radialGradient>
						<polygon fill="url(#SVGID_44_)" points="443.331,93.394 472.695,57.021 813.865,57.021 786.741,93.394 						"/>
						
							<linearGradient id="SVGID_45_" gradientUnits="userSpaceOnUse" x1="2947.293" y1="38.0518" x2="2947.293" y2="173.3703" gradientTransform="matrix(-1 0 0 1 3574.1055 0)">
							<stop  offset="0" style="stop-color:#FFDDFD"/>
							<stop  offset="0.0511" style="stop-color:#FF00FF"/>
							<stop  offset="0.1719" style="stop-color:#E500FB"/>
							<stop  offset="0.4302" style="stop-color:#A400F2"/>
							<stop  offset="0.8021" style="stop-color:#3B01E3"/>
							<stop  offset="1" style="stop-color:#0101DB"/>
						</linearGradient>
						<polygon fill="url(#SVGID_45_)" points="449.891,93.218 475.126,62.093 803.735,62.093 780.467,93.394 						"/>
						
							<radialGradient id="SVGID_46_" cx="-48989.9375" cy="-4101.4854" r="76.7423" gradientTransform="matrix(-0.0023 0.1005 -2.2803 -0.0274 -8827.3438 4874.2109)" gradientUnits="userSpaceOnUse">
							<stop  offset="0.1522" style="stop-color:#FFC2FF"/>
							<stop  offset="0.281" style="stop-color:#B37AC6"/>
							<stop  offset="0.4088" style="stop-color:#6E3892"/>
							<stop  offset="0.5005" style="stop-color:#431072"/>
							<stop  offset="0.5472" style="stop-color:#330066"/>
							<stop  offset="0.5913" style="stop-color:#27004D"/>
							<stop  offset="0.6533" style="stop-color:#190031"/>
							<stop  offset="0.7203" style="stop-color:#0E001B"/>
							<stop  offset="0.7936" style="stop-color:#06000C"/>
							<stop  offset="0.8783" style="stop-color:#010003"/>
							<stop  offset="1" style="stop-color:#000000"/>
						</radialGradient>
						<path fill="url(#SVGID_46_)" d="M637.771,70.814c-96.668-1.16-174.951-5.552-174.852-9.811
							c0.099-4.259,78.543-6.771,175.211-5.611c96.667,1.16,174.951,5.552,174.852,9.811
							C812.883,69.462,734.438,71.974,637.771,70.814z"/>
					</g>
					
						<linearGradient id="SVGID_47_" gradientUnits="userSpaceOnUse" x1="3128.3262" y1="177.6538" x2="3128.3262" y2="58.6686" gradientTransform="matrix(-1 0 0 1 3574.1055 0)">
						<stop  offset="0" style="stop-color:#191B21"/>
						<stop  offset="0.2478" style="stop-color:#3C404D"/>
						<stop  offset="0.4809" style="stop-color:#5F667A"/>
						<stop  offset="0.5686" style="stop-color:#5C6377"/>
						<stop  offset="0.646" style="stop-color:#545A6C"/>
						<stop  offset="0.7195" style="stop-color:#464B5A"/>
						<stop  offset="0.7905" style="stop-color:#323640"/>
						<stop  offset="0.8593" style="stop-color:#191B20"/>
						<stop  offset="0.9143" style="stop-color:#000000"/>
					</linearGradient>
					<polygon fill="url(#SVGID_47_)" points="69.563,88.305 234.916,159.356 821.994,159.356 765.41,88.305 					"/>
					
						<linearGradient id="SVGID_48_" gradientUnits="userSpaceOnUse" x1="3125.2471" y1="85.2148" x2="3125.2471" y2="222.4172" gradientTransform="matrix(-1 0 0 1 3574.1055 0)">
						<stop  offset="0.1925" style="stop-color:#2E313B"/>
						<stop  offset="0.3261" style="stop-color:#2B2E37"/>
						<stop  offset="0.4578" style="stop-color:#22242B"/>
						<stop  offset="0.5882" style="stop-color:#121418"/>
						<stop  offset="0.7012" style="stop-color:#000000"/>
					</linearGradient>
					<polygon fill="url(#SVGID_48_)" points="818.137,154.523 237.236,154.523 79.581,93.218 769.298,93.218 					"/>
					<g>
						<g>
							
								<radialGradient id="SVGID_49_" cx="3420.8486" cy="117.8442" r="91.0732" gradientTransform="matrix(-1 0 0 1 3574.1055 0)" gradientUnits="userSpaceOnUse">
								<stop  offset="0" style="stop-color:#FFCCFF"/>
								<stop  offset="0.1676" style="stop-color:#FDC9FE"/>
								<stop  offset="0.3099" style="stop-color:#F8BEFC"/>
								<stop  offset="0.4429" style="stop-color:#EFADF7"/>
								<stop  offset="0.5704" style="stop-color:#E394F1"/>
								<stop  offset="0.6939" style="stop-color:#D374E9"/>
								<stop  offset="0.8143" style="stop-color:#BF4DDF"/>
								<stop  offset="0.9302" style="stop-color:#A91FD4"/>
								<stop  offset="1" style="stop-color:#9900CC"/>
							</radialGradient>
							<polygon fill-rule="evenodd" clip-rule="evenodd" fill="url(#SVGID_49_)" points="291.796,167.949 84.512,167.949 
								62.111,77.014 269.37,77.014 							"/>
							
								<linearGradient id="SVGID_50_" gradientUnits="userSpaceOnUse" x1="3426.4297" y1="16.8218" x2="3358.6411" y2="261.4254" gradientTransform="matrix(-1 0 0 1 3574.1055 0)">
								<stop  offset="0" style="stop-color:#B3FFFD"/>
								<stop  offset="0.0996" style="stop-color:#FF00FF"/>
								<stop  offset="0.1913" style="stop-color:#FA00FE"/>
								<stop  offset="0.3029" style="stop-color:#EB00FC"/>
								<stop  offset="0.4249" style="stop-color:#D200F9"/>
								<stop  offset="0.5544" style="stop-color:#B000F4"/>
								<stop  offset="0.6898" style="stop-color:#8300ED"/>
								<stop  offset="0.8301" style="stop-color:#4D01E6"/>
								<stop  offset="0.9719" style="stop-color:#0E01DD"/>
								<stop  offset="1" style="stop-color:#0101DB"/>
							</linearGradient>
							<polygon fill-rule="evenodd" clip-rule="evenodd" fill="url(#SVGID_50_)" points="288.472,165.34 86.558,165.34 
								65.436,79.597 267.349,79.597 							"/>
							
								<linearGradient id="SVGID_51_" gradientUnits="userSpaceOnUse" x1="3425.0479" y1="23.4062" x2="3361.3188" y2="253.3614" gradientTransform="matrix(-1 0 0 1 3574.1055 0)">
								<stop  offset="0" style="stop-color:#B3FFFD"/>
								<stop  offset="0.0996" style="stop-color:#000000"/>
								<stop  offset="0.1996" style="stop-color:#050005"/>
								<stop  offset="0.3213" style="stop-color:#130014"/>
								<stop  offset="0.4544" style="stop-color:#2B002D"/>
								<stop  offset="0.5955" style="stop-color:#4D004F"/>
								<stop  offset="0.743" style="stop-color:#78017B"/>
								<stop  offset="0.8936" style="stop-color:#AB01B1"/>
								<stop  offset="1" style="stop-color:#D401DB"/>
							</linearGradient>
							<polygon fill-rule="evenodd" clip-rule="evenodd" fill="url(#SVGID_51_)" points="283.781,162.377 88.921,162.377 
								69.386,83.075 264.245,83.075 							"/>
							
								<radialGradient id="SVGID_52_" cx="-6568.793" cy="-3943.0347" r="73.0056" gradientTransform="matrix(-0.1308 0.0337 -0.2272 -0.871 -1475.0148 -3084.7358)" gradientUnits="userSpaceOnUse">
								<stop  offset="0" style="stop-color:#FFFFFF"/>
								<stop  offset="0.05" style="stop-color:#E5DEEB"/>
								<stop  offset="0.1999" style="stop-color:#9A80B3"/>
								<stop  offset="0.3215" style="stop-color:#623B89"/>
								<stop  offset="0.4088" style="stop-color:#401070"/>
								<stop  offset="0.4531" style="stop-color:#330066"/>
								<stop  offset="0.5064" style="stop-color:#27004D"/>
								<stop  offset="0.5813" style="stop-color:#190031"/>
								<stop  offset="0.6622" style="stop-color:#0E001B"/>
								<stop  offset="0.7508" style="stop-color:#06000C"/>
								<stop  offset="0.853" style="stop-color:#010003"/>
								<stop  offset="1" style="stop-color:#000000"/>
							</radialGradient>
							<path fill="url(#SVGID_52_)" d="M270.493,130.737c-9.164-35.125-12.318-64.701-7.045-66.059s16.977,26.017,26.141,61.143
								c9.164,35.125,12.317,64.701,7.045,66.059C291.36,193.237,279.656,165.863,270.493,130.737z"/>
							
								<radialGradient id="SVGID_53_" cx="-6015.1196" cy="-5445.0894" r="306.2958" gradientTransform="matrix(-0.0516 -0.0411 0.3153 -0.396 1494.0979 -2308.1257)" gradientUnits="userSpaceOnUse">
								<stop  offset="0" style="stop-color:#FFFFFF"/>
								<stop  offset="0.05" style="stop-color:#F2DEFF"/>
								<stop  offset="0.1999" style="stop-color:#CC80FF"/>
								<stop  offset="0.3215" style="stop-color:#B13BFF"/>
								<stop  offset="0.4088" style="stop-color:#A010FF"/>
								<stop  offset="0.4531" style="stop-color:#9900FF"/>
								<stop  offset="0.4549" style="stop-color:#9800FD"/>
								<stop  offset="0.4994" style="stop-color:#7800C8"/>
								<stop  offset="0.5458" style="stop-color:#5C009A"/>
								<stop  offset="0.595" style="stop-color:#430070"/>
								<stop  offset="0.6464" style="stop-color:#2F004E"/>
								<stop  offset="0.7005" style="stop-color:#1E0031"/>
								<stop  offset="0.7584" style="stop-color:#10001B"/>
								<stop  offset="0.8218" style="stop-color:#07000C"/>
								<stop  offset="0.8949" style="stop-color:#020003"/>
								<stop  offset="1" style="stop-color:#000000"/>
							</radialGradient>
							<path fill="url(#SVGID_53_)" d="M70.509,72.347C83.222,56.375,95.213,44.771,97.292,46.43S90.749,62.38,78.036,78.353
								c-12.714,15.972,5.753,71.25,3.675,69.591C79.631,146.285,57.795,88.319,70.509,72.347z"/>
						</g>
					</g>
				</g>
			</g>
			<g>
				
					<radialGradient id="SVGID_54_" cx="-107306.4219" cy="-13234.8662" r="203.5078" gradientTransform="matrix(1.0651 0 0 -0.0399 114877.5469 -369.667)" gradientUnits="userSpaceOnUse">
					<stop  offset="0" style="stop-color:#FFFFFF"/>
					<stop  offset="0.0356" style="stop-color:#F6F6F6"/>
					<stop  offset="0.0938" style="stop-color:#DEDEDE"/>
					<stop  offset="0.1672" style="stop-color:#B6B6B6"/>
					<stop  offset="0.2524" style="stop-color:#7F7F7F"/>
					<stop  offset="0.2696" style="stop-color:#737373"/>
					<stop  offset="0.275" style="stop-color:#707070"/>
					<stop  offset="0.3356" style="stop-color:#4D4D4D"/>
					<stop  offset="0.4003" style="stop-color:#313131"/>
					<stop  offset="0.4694" style="stop-color:#1B1B1B"/>
					<stop  offset="0.5452" style="stop-color:#0C0C0C"/>
					<stop  offset="0.6326" style="stop-color:#030303"/>
					<stop  offset="0.7584" style="stop-color:#000000"/>
				</radialGradient>
				<ellipse fill="url(#SVGID_54_)" cx="585.489" cy="158.404" rx="216.764" ry="8.12"/>
				
					<radialGradient id="SVGID_55_" cx="-106695.4688" cy="-13251.1318" r="203.5078" gradientTransform="matrix(1.0651 0 0 -0.0399 114877.5469 -369.667)" gradientUnits="userSpaceOnUse">
					<stop  offset="0" style="stop-color:#FFFFFF"/>
					<stop  offset="0.0356" style="stop-color:#F6F6F6"/>
					<stop  offset="0.0938" style="stop-color:#DEDEDE"/>
					<stop  offset="0.1672" style="stop-color:#B6B6B6"/>
					<stop  offset="0.2524" style="stop-color:#7F7F7F"/>
					<stop  offset="0.2696" style="stop-color:#737373"/>
					<stop  offset="0.275" style="stop-color:#707070"/>
					<stop  offset="0.3356" style="stop-color:#4D4D4D"/>
					<stop  offset="0.4003" style="stop-color:#313131"/>
					<stop  offset="0.4694" style="stop-color:#1B1B1B"/>
					<stop  offset="0.5452" style="stop-color:#0C0C0C"/>
					<stop  offset="0.6326" style="stop-color:#030303"/>
					<stop  offset="0.7584" style="stop-color:#000000"/>
				</radialGradient>
				<ellipse fill="url(#SVGID_55_)" cx="1236.211" cy="159.053" rx="216.764" ry="8.12"/>
			</g>
		</g>
	</g>
</g>
<g>
	<linearGradient id="SVGID_56_" gradientUnits="userSpaceOnUse" x1="807.1748" y1="-138.5884" x2="982.0349" y2="390.634">
		<stop  offset="0.1925" style="stop-color:#2E313B"/>
		<stop  offset="0.3261" style="stop-color:#2B2E37"/>
		<stop  offset="0.4578" style="stop-color:#22242B"/>
		<stop  offset="0.5882" style="stop-color:#121418"/>
		<stop  offset="0.7012" style="stop-color:#000000"/>
	</linearGradient>
	<path fill-rule="evenodd" clip-rule="evenodd" fill="url(#SVGID_56_)" d="M840.504,169.986l-2.782,3.73h-80.199l-24.722-13.593
		l21.664-72.386h33.211c-5.86-16.092-11.438-32.154-16.074-48.686l-0.482-1.719l1.037-1.454
		c11.502-16.132,51.57-20.339,69.835-21.914c20.202-1.742,40.482-2.11,60.749-2.11c20.535,0,41.003,0.271,61.475,2.103
		c14.176,1.269,29.207,3.255,42.868,7.317c9.876,2.937,22.465,8.034,27.892,17.399l0.766,1.32l-0.38,1.478
		c-4.032,15.703-9.894,30.968-15.312,46.265h34.977l21.843,72.378l-24.649,13.601h-82.494l-2.491-3.73"/>
	<path fill-rule="evenodd" clip-rule="evenodd" fill="#FF4AF8" d="M787.676,87.737c-5.86-16.092-11.438-32.154-16.074-48.686
		l-0.482-1.719l1.037-1.454c11.502-16.132,51.57-20.339,69.835-21.914c20.202-1.742,40.482-2.11,60.749-2.11
		c20.535,0,41.003,0.271,61.475,2.103c14.176,1.269,29.207,3.255,42.868,7.317c9.876,2.937,22.465,8.034,27.892,17.399l0.766,1.32
		l-0.38,1.478c-4.032,15.703-9.894,30.968-15.312,46.265h34.977l21.843,72.378l-24.649,13.601h-82.494l-2.491-3.73h12.56h71.465
		l21.168-11.68l-20.172-66.839h-37.465c5.623-16.254,12.664-34.197,16.958-50.923c-14.551-25.109-98.074-24.959-129.007-24.959
		c-30.566,0-111.834,0.422-127.547,22.459c5.397,19.246,11.317,35.711,17.819,53.424h-35.77l-20.004,66.839l21.242,11.68h50.485
		h31.539l-2.782,3.73h-80.199l-24.722-13.593l21.664-72.386H787.676z"/>
	<linearGradient id="SVGID_57_" gradientUnits="userSpaceOnUse" x1="902.7397" y1="114.1255" x2="902.7397" y2="27.1414">
		<stop  offset="0" style="stop-color:#3595D2"/>
		<stop  offset="1" style="stop-color:#B76BAC"/>
	</linearGradient>
	<path fill-rule="evenodd" clip-rule="evenodd" fill="url(#SVGID_57_)" d="M991.645,29.796c18.213,2.999,29.256,6.926,29.256,11.225
		c0,9.413-52.902,17.043-118.16,17.043c-65.258,0-118.161-7.631-118.161-17.043c0-4.877,14.207-9.275,36.973-12.382
		c-5.498,2.032-8.565,4.354-8.565,6.865c0,4.665,10.573,8.675,27.666,11.387c16.543,2.625,39.366,4.249,64.546,4.249
		s48.002-1.624,64.546-4.249c17.093-2.712,27.666-6.722,27.666-11.387C997.411,33.457,995.374,31.537,991.645,29.796z"/>
	<linearGradient id="SVGID_58_" gradientUnits="userSpaceOnUse" x1="905.1992" y1="114.1284" x2="905.1992" y2="27.1427">
		<stop  offset="0" style="stop-color:#3595D2"/>
		<stop  offset="1" style="stop-color:#B76BAC"/>
	</linearGradient>
	<path fill-rule="evenodd" clip-rule="evenodd" fill="url(#SVGID_58_)" d="M902.74,23.978c27.788,0,53.333,1.384,73.508,3.7
		c11.758,2.297,18.773,5.026,18.773,7.827c0,2.74-6.714,5.411-18.012,7.676c1.692-0.689,2.601-1.412,2.601-2.159
		c0-4.61-34.416-8.348-76.87-8.348c-42.455,0-76.87,3.738-76.87,8.348c0,0.146,0.035,0.291,0.103,0.435
		c-6.757-1.847-10.597-3.88-10.597-5.951c0-3.294,9.707-6.489,25.417-8.998C858.805,24.904,880.022,23.978,902.74,23.978z"/>
	<linearGradient id="SVGID_59_" gradientUnits="userSpaceOnUse" x1="904.1655" y1="113.709" x2="904.1655" y2="24.0996">
		<stop  offset="0" style="stop-color:#3595D2"/>
		<stop  offset="1" style="stop-color:#B76BAC"/>
	</linearGradient>
	<path fill-rule="evenodd" clip-rule="evenodd" fill="url(#SVGID_59_)" d="M786.594,46.896c8.187,4.472,23.383,7.93,42.349,10.329
		c0.844,4.858,1.689,9.717,2.534,14.575c-12.87-1.809-25.694-4.134-38.469-6.987c-0.261-0.122-0.516-0.244-0.763-0.367
		c-1.548-4.485-2.965-8.729-4.122-12.429c0.242-0.728,0.376-1.079-0.01-0.032C787.536,50.141,787.023,48.429,786.594,46.896
		L786.594,46.896z M831.824,57.58c42.114,4.992,101.373,4.934,144.476-0.704c-0.868,4.993-1.735,9.986-2.604,14.979
		c-46.996,6.17-93.46,6.51-139.33,0.34C833.518,67.324,832.671,62.452,831.824,57.58L831.824,57.58z M979.188,56.487
		c18.171-2.526,33.231-6.082,42.55-10.708c-0.241,0.941-3.048,8.996-6.601,19.168c-12.89,2.596-25.742,4.777-38.554,6.523
		C977.451,66.476,978.319,61.481,979.188,56.487L979.188,56.487z M1013.039,70.956c-12.559,2.738-25.076,5.012-37.553,6.823
		c-0.964,5.543-1.928,11.086-2.892,16.629c4.973,0,9.946,0,14.918,0c7.304-0.438,13.589-1.657,18.639-3.644
		C1008.322,84.476,1010.754,77.502,1013.039,70.956L1013.039,70.956z M838.227,94.408c43.85,0,87.699,0,131.549,0
		c0.939-5.406,1.879-10.811,2.818-16.216c-46.296,6.458-92.024,6.516-137.17,0.089C836.358,83.657,837.292,89.033,838.227,94.408
		L838.227,94.408z M825.362,94.408c3.348,0,6.697,0,10.045,0c-0.959-5.517-1.918-11.032-2.877-16.549
		c-12.756-1.896-25.465-4.309-38.128-7.243c2.24,6.334,4.613,12.851,6.784,18.762C807.362,92.225,815.599,93.488,825.362,94.408z"/>
	<linearGradient id="SVGID_60_" gradientUnits="userSpaceOnUse" x1="783.6855" y1="154.3066" x2="811.6915" y2="169.9184">
		<stop  offset="0" style="stop-color:#636182"/>
		<stop  offset="1" style="stop-color:#06041B"/>
	</linearGradient>
	<polygon fill-rule="evenodd" clip-rule="evenodd" fill="url(#SVGID_60_)" points="793.58,154.292 805.934,161.592 788.1,161.592 
		773.74,154.292 774.134,154.292 774.76,154.292 775.387,154.292 776.013,154.292 776.639,154.292 777.266,154.292 777.892,154.292 
		778.519,154.292 779.145,154.292 779.771,154.292 780.398,154.292 781.024,154.292 781.651,154.292 782.278,154.292 
		782.905,154.292 783.532,154.292 784.159,154.292 784.786,154.292 785.414,154.292 786.041,154.292 786.668,154.292 
		787.296,154.292 787.924,154.292 788.552,154.292 789.179,154.292 789.808,154.292 790.436,154.292 791.064,154.292 
		791.693,154.292 792.322,154.292 792.951,154.292 	"/>
	<linearGradient id="SVGID_61_" gradientUnits="userSpaceOnUse" x1="758.7993" y1="154.6133" x2="793.2662" y2="173.9335">
		<stop  offset="0" style="stop-color:#636182"/>
		<stop  offset="1" style="stop-color:#06041B"/>
	</linearGradient>
	<polygon fill-rule="evenodd" clip-rule="evenodd" fill="url(#SVGID_61_)" points="766.947,154.292 782.301,161.592 
		764.495,161.592 747.178,154.292 750.643,154.263 	"/>
	<linearGradient id="SVGID_62_" gradientUnits="userSpaceOnUse" x1="835.875" y1="153.9756" x2="854.58" y2="170.2757">
		<stop  offset="0" style="stop-color:#636182"/>
		<stop  offset="1" style="stop-color:#06041B"/>
	</linearGradient>
	<polygon fill-rule="evenodd" clip-rule="evenodd" fill="url(#SVGID_62_)" points="846.275,154.292 852.694,161.592 
		834.861,161.592 826.203,154.292 826.83,154.292 827.456,154.292 828.083,154.292 828.708,154.292 829.334,154.292 
		829.961,154.292 830.587,154.292 831.214,154.292 831.841,154.292 832.467,154.292 833.094,154.292 833.72,154.292 
		834.347,154.292 834.974,154.292 835.601,154.292 836.228,154.292 836.854,154.292 837.482,154.292 838.109,154.292 
		838.736,154.292 839.364,154.292 839.991,154.292 840.619,154.292 841.247,154.292 841.875,154.292 842.503,154.292 
		843.131,154.292 843.76,154.292 844.389,154.292 845.018,154.292 845.646,154.292 	"/>
	<linearGradient id="SVGID_63_" gradientUnits="userSpaceOnUse" x1="808.1992" y1="153.2319" x2="834.4749" y2="171.1631">
		<stop  offset="0" style="stop-color:#636182"/>
		<stop  offset="1" style="stop-color:#06041B"/>
	</linearGradient>
	<polygon fill-rule="evenodd" clip-rule="evenodd" fill="url(#SVGID_63_)" points="819.679,154.292 829.276,161.624 
		811.441,161.624 799.828,154.292 	"/>
	<linearGradient id="SVGID_64_" gradientUnits="userSpaceOnUse" x1="880.8628" y1="154.3652" x2="881.3394" y2="171.4364">
		<stop  offset="0" style="stop-color:#636182"/>
		<stop  offset="1" style="stop-color:#06041B"/>
	</linearGradient>
	<polygon fill-rule="evenodd" clip-rule="evenodd" fill="url(#SVGID_64_)" points="901.804,154.292 901.96,161.592 864.798,161.592 
		859.918,154.292 	"/>
	<linearGradient id="SVGID_65_" gradientUnits="userSpaceOnUse" x1="879.6455" y1="111.1172" x2="879.62" y2="127.3352">
		<stop  offset="0" style="stop-color:#636182"/>
		<stop  offset="1" style="stop-color:#06041B"/>
	</linearGradient>
	<polygon fill-rule="evenodd" clip-rule="evenodd" fill="url(#SVGID_65_)" points="901.487,114.236 900.314,120.877 
		862.677,120.877 857.797,113.577 859.12,113.577 860.444,113.577 861.768,113.577 863.092,113.577 864.416,113.577 
		865.739,113.577 867.063,113.577 868.387,113.577 869.71,113.577 871.035,113.577 872.358,113.577 873.682,113.577 
		875.006,113.577 876.33,113.577 877.653,113.577 878.977,113.577 880.301,113.577 881.625,113.577 882.948,113.577 
		884.272,113.577 885.596,113.577 886.92,113.577 888.243,113.577 889.567,113.577 890.891,113.577 892.215,113.577 
		893.538,113.577 894.862,113.577 896.186,113.577 897.51,113.577 898.833,113.577 	"/>
	<linearGradient id="SVGID_66_" gradientUnits="userSpaceOnUse" x1="917.0254" y1="154.0908" x2="914.6759" y2="171.6687">
		<stop  offset="0" style="stop-color:#636182"/>
		<stop  offset="1" style="stop-color:#06041B"/>
	</linearGradient>
	<polygon fill-rule="evenodd" clip-rule="evenodd" fill="url(#SVGID_66_)" points="926.937,154.292 924.262,161.592 
		906.623,161.592 907.06,154.292 	"/>
	<linearGradient id="SVGID_67_" gradientUnits="userSpaceOnUse" x1="942.8369" y1="154.541" x2="937.7141" y2="172.126">
		<stop  offset="0" style="stop-color:#636182"/>
		<stop  offset="1" style="stop-color:#06041B"/>
	</linearGradient>
	<path fill-rule="evenodd" clip-rule="evenodd" fill="url(#SVGID_67_)" d="M953.6,154.292l-5.673,7.3h-17.833l3.434-7.3
		C940.218,154.292,946.908,154.292,953.6,154.292z"/>
	<linearGradient id="SVGID_68_" gradientUnits="userSpaceOnUse" x1="1035.6133" y1="151.5752" x2="1017.2327" y2="177.6396">
		<stop  offset="0" style="stop-color:#636182"/>
		<stop  offset="1" style="stop-color:#06041B"/>
	</linearGradient>
	<path fill-rule="evenodd" clip-rule="evenodd" fill="url(#SVGID_68_)" d="M1060.419,154.292l-17.714,7.3h-40.879l12.527-7.3
		c13.564,0,26.684,0,40.248,0h1.454h1.454h1.454H1060.419z"/>
	<linearGradient id="SVGID_69_" gradientUnits="userSpaceOnUse" x1="978.7119" y1="154.0898" x2="975.2097" y2="172.6896">
		<stop  offset="0" style="stop-color:#636182"/>
		<stop  offset="1" style="stop-color:#06041B"/>
	</linearGradient>
	<path fill-rule="evenodd" clip-rule="evenodd" fill="url(#SVGID_69_)" d="M1002.576,154.292l-11.2,7.3h-37.979l6.375-7.3
		C973.851,154.292,988.498,154.292,1002.576,154.292z"/>
	<g>
		<path fill-rule="evenodd" clip-rule="evenodd" fill="none" stroke="#141414" stroke-width="12" stroke-miterlimit="10" d="
			M842.964,176.117v6.631h-8.251l4.96-6.023c0.304-0.337,0.65-0.675,1.038-1.013c0.388-0.337,0.768-0.506,1.139-0.506
			c0.337,0,0.607,0.101,0.81,0.303C842.863,175.712,842.964,175.915,842.964,176.117L842.964,176.117z M850.253,173.384
			c0-1.114-0.169-2.042-0.506-2.784c-0.337-0.742-0.81-1.333-1.417-1.771s-1.333-0.751-2.177-0.937
			c-0.844-0.185-1.789-0.278-2.835-0.278c-1.35,0-2.708,0.135-4.075,0.404c-1.367,0.271-2.438,0.743-3.214,1.418l-17.717,23.639
			h8.555l3.341-4.201h12.756v4.201h7.289V173.384z"/>
		<path fill-rule="evenodd" clip-rule="evenodd" fill="none" stroke="#141414" stroke-width="12" stroke-miterlimit="10" d="
			M853.493,177.23v15.844h0.409h6.88v-9.618h7.44l7.226,9.618h8.46l-6.979-9.618h2.075c0.473,0,0.954-0.117,1.442-0.354
			c0.49-0.236,0.928-0.549,1.316-0.937c0.388-0.388,0.7-0.827,0.937-1.316c0.236-0.49,0.354-0.987,0.354-1.493v-7.644
			c0-0.506-0.118-1.004-0.354-1.493c-0.236-0.49-0.549-0.928-0.937-1.316c-0.388-0.388-0.827-0.7-1.316-0.937
			c-0.489-0.236-0.97-0.354-1.442-0.354h-25.512v6.833h22.272v2.784H853.493z"/>
		<path fill-rule="evenodd" clip-rule="evenodd" fill="none" stroke="#141414" stroke-width="12" stroke-miterlimit="10" d="
			M915.978,174.446h-19.033h-3.413v11.795h23.942v6.833h-27.182c-0.473,0-0.953-0.118-1.442-0.354s-0.929-0.548-1.316-0.937
			c-0.388-0.388-0.7-0.826-0.937-1.315c-0.236-0.49-0.354-0.987-0.354-1.494v-17.26c0-0.506,0.118-1.004,0.354-1.493
			c0.236-0.49,0.548-0.928,0.937-1.316c0.387-0.388,0.827-0.7,1.316-0.937c0.489-0.236,0.97-0.354,1.442-0.354h26v6.833H915.978
			L915.978,174.446z M909.465,177.23h-7.289h-5.231h-0.628v6.226h9.1c0.472,0,0.953-0.117,1.441-0.354
			c0.49-0.236,0.929-0.549,1.316-0.937c0.388-0.388,0.701-0.827,0.937-1.316c0.236-0.49,0.354-0.987,0.354-1.494V177.23z"/>
		<path fill-rule="evenodd" clip-rule="evenodd" fill="none" stroke="#141414" stroke-width="12" stroke-miterlimit="10" d="
			M926.536,167.664c0.573,0.068,1.308,0.414,2.202,1.038c0.894,0.624,2.05,1.569,3.467,2.834c1.418,1.265,3.164,2.885,5.239,4.859
			s4.581,4.345,7.517,7.111v-15.894h7.289v22.272c0,0.404-0.109,0.793-0.328,1.164c-0.22,0.371-0.516,0.709-0.887,1.012
			c-0.371,0.305-0.81,0.549-1.316,0.734c-0.506,0.186-1.028,0.278-1.568,0.278h-1.418c-0.135,0-0.219-0.017-0.253-0.05
			c-0.54-0.068-1.273-0.423-2.202-1.063c-0.928-0.642-2.126-1.603-3.594-2.886c-1.468-1.282-3.239-2.91-5.314-4.885
			c-2.075-1.974-4.53-4.328-7.365-7.061v15.945h-7.289v-22.272c0-0.371,0.109-0.75,0.329-1.139c0.219-0.388,0.515-0.734,0.886-1.037
			c0.371-0.304,0.81-0.549,1.316-0.735c0.506-0.185,1.045-0.278,1.619-0.278h1.367C926.401,167.613,926.502,167.63,926.536,167.664z
			"/>
		<path fill-rule="evenodd" clip-rule="evenodd" fill="none" stroke="#141414" stroke-width="12" stroke-miterlimit="10" d="
			M962.655,176.117v6.631h8.25l-4.96-6.023c-0.304-0.337-0.649-0.675-1.037-1.013c-0.389-0.337-0.769-0.506-1.14-0.506
			c-0.337,0-0.607,0.101-0.81,0.303C962.756,175.712,962.655,175.915,962.655,176.117L962.655,176.117z M955.366,173.384
			c0-1.114,0.169-2.042,0.506-2.784c0.338-0.742,0.811-1.333,1.418-1.771c0.606-0.439,1.332-0.751,2.176-0.937
			c0.844-0.185,1.789-0.278,2.835-0.278c1.35,0,2.708,0.135,4.074,0.404c1.367,0.271,2.438,0.743,3.215,1.418l17.717,23.639h-8.555
			l-3.341-4.201h-12.756v4.201h-7.289V173.384z"/>
	</g>
	<g>
		<path fill-rule="evenodd" clip-rule="evenodd" fill="#FF4CF8" d="M842.964,176.117v6.631h-8.251l4.96-6.023
			c0.304-0.337,0.65-0.675,1.038-1.013c0.388-0.337,0.768-0.506,1.139-0.506c0.337,0,0.607,0.101,0.81,0.303
			C842.863,175.712,842.964,175.915,842.964,176.117L842.964,176.117z M850.253,173.384c0-1.114-0.169-2.042-0.506-2.784
			c-0.337-0.742-0.81-1.333-1.417-1.771s-1.333-0.751-2.177-0.937c-0.844-0.185-1.789-0.278-2.835-0.278
			c-1.35,0-2.708,0.135-4.075,0.404c-1.367,0.271-2.438,0.743-3.214,1.418l-17.717,23.639h8.555l3.341-4.201h12.756v4.201h7.289
			V173.384z"/>
		<path fill-rule="evenodd" clip-rule="evenodd" fill="#FF4CF8" d="M853.493,177.23v15.844h0.409h6.88v-9.618h7.44l7.226,9.618h8.46
			l-6.979-9.618h2.075c0.473,0,0.954-0.117,1.442-0.354c0.49-0.236,0.928-0.549,1.316-0.937c0.388-0.388,0.7-0.827,0.937-1.316
			c0.236-0.49,0.354-0.987,0.354-1.493v-7.644c0-0.506-0.118-1.004-0.354-1.493c-0.236-0.49-0.549-0.928-0.937-1.316
			c-0.388-0.388-0.827-0.7-1.316-0.937c-0.489-0.236-0.97-0.354-1.442-0.354h-25.512v6.833h22.272v2.784H853.493z"/>
		<path fill-rule="evenodd" clip-rule="evenodd" fill="#FF4CF8" d="M915.978,174.446h-19.033h-3.413v11.795h23.942v6.833h-27.182
			c-0.473,0-0.953-0.118-1.442-0.354s-0.929-0.548-1.316-0.937c-0.388-0.388-0.7-0.826-0.937-1.315
			c-0.236-0.49-0.354-0.987-0.354-1.494v-17.26c0-0.506,0.118-1.004,0.354-1.493c0.236-0.49,0.548-0.928,0.937-1.316
			c0.387-0.388,0.827-0.7,1.316-0.937c0.489-0.236,0.97-0.354,1.442-0.354h26v6.833H915.978L915.978,174.446z M909.465,177.23
			h-7.289h-5.231h-0.628v6.226h9.1c0.472,0,0.953-0.117,1.441-0.354c0.49-0.236,0.929-0.549,1.316-0.937
			c0.388-0.388,0.701-0.827,0.937-1.316c0.236-0.49,0.354-0.987,0.354-1.494V177.23z"/>
		<path fill-rule="evenodd" clip-rule="evenodd" fill="#FF4CF8" d="M926.536,167.664c0.573,0.068,1.308,0.414,2.202,1.038
			c0.894,0.624,2.05,1.569,3.467,2.834c1.418,1.265,3.164,2.885,5.239,4.859s4.581,4.345,7.517,7.111v-15.894h7.289v22.272
			c0,0.404-0.109,0.793-0.328,1.164c-0.22,0.371-0.516,0.709-0.887,1.012c-0.371,0.305-0.81,0.549-1.316,0.734
			c-0.506,0.186-1.028,0.278-1.568,0.278h-1.418c-0.135,0-0.219-0.017-0.253-0.05c-0.54-0.068-1.273-0.423-2.202-1.063
			c-0.928-0.642-2.126-1.603-3.594-2.886c-1.468-1.282-3.239-2.91-5.314-4.885c-2.075-1.974-4.53-4.328-7.365-7.061v15.945h-7.289
			v-22.272c0-0.371,0.109-0.75,0.329-1.139c0.219-0.388,0.515-0.734,0.886-1.037c0.371-0.304,0.81-0.549,1.316-0.735
			c0.506-0.185,1.045-0.278,1.619-0.278h1.367C926.401,167.613,926.502,167.63,926.536,167.664z"/>
		<path fill-rule="evenodd" clip-rule="evenodd" fill="#FF4CF8" d="M962.655,176.117v6.631h8.25l-4.96-6.023
			c-0.304-0.337-0.649-0.675-1.037-1.013c-0.389-0.337-0.769-0.506-1.14-0.506c-0.337,0-0.607,0.101-0.81,0.303
			C962.756,175.712,962.655,175.915,962.655,176.117L962.655,176.117z M955.366,173.384c0-1.114,0.169-2.042,0.506-2.784
			c0.338-0.742,0.811-1.333,1.418-1.771c0.606-0.439,1.332-0.751,2.176-0.937c0.844-0.185,1.789-0.278,2.835-0.278
			c1.35,0,2.708,0.135,4.074,0.404c1.367,0.271,2.438,0.743,3.215,1.418l17.717,23.639h-8.555l-3.341-4.201h-12.756v4.201h-7.289
			V173.384z"/>
	</g>
	<g>
		<path fill-rule="evenodd" clip-rule="evenodd" fill="#FFFFFF" d="M805.052,99.861c-1.013,4.54-2.011,9.083-2.944,13.613
			c-0.935,4.537-1.914,9.071-2.881,13.614c-0.963,4.525-1.899,9.068-2.817,13.602s-1.868,9.074-2.818,13.603
			c-6.617,0-13.266,0-19.851,0c0.57-2.422,1.217-4.841,1.805-7.277c0.583-2.419,1.14-4.861,1.773-7.294c-2.185,0-4.401,0-6.585,0
			c-0.696,2.433-1.235,4.872-1.868,7.294c-0.634,2.427-1.266,4.855-1.867,7.277c-5.414-0.005-10.828-0.016-16.179-0.027
			c-1.234,0.011-2.469,0.021-3.641,0.027c1.33-4.529,2.677-9.072,3.989-13.603c1.315-4.538,2.721-9.064,4.084-13.602
			c1.36-4.531,2.677-9.084,4.052-13.614c1.378-4.539,2.754-9.074,4.179-13.613C777.318,99.861,791.153,99.861,805.052,99.861
			L805.052,99.861z M1004.666,149.367c0.189,0.936,0.38,1.873,0.602,2.809c-1.014,0-2.058,0-3.103,0
			c0.189,0.708,0.316,1.415,0.411,2.117c-14.278,0-28.557,0-42.804,0c-0.507-4.529-1.013-9.063-1.488-13.597
			c-0.475-4.534-0.95-9.078-1.456-13.608c-0.507-4.538-1.045-9.074-1.551-13.608c-0.507-4.534-1.014-9.079-1.488-13.619
			c12.79,0,25.58,0,38.34,0c0.285,1.649,0.633,3.293,0.918,4.937c1.646,0,3.292,0,4.971,0c0.791,3.718,1.536,7.439,2.279,11.148
			c0.744,3.715,1.52,7.43,2.279,11.143c0.76,3.712,1.535,7.427,2.279,11.142c0.743,3.709,1.488,7.424,2.248,11.137
			C1006.28,149.367,1005.457,149.367,1004.666,149.367L1004.666,149.367z M860.108,151.457c-1.298,0-2.628,0-3.926,0
			c0.032-1.273,0.063-2.547,0.126-3.827c-1.076,0-2.121,0-3.197,0c0.316-3.418,0.633-6.847,0.981-10.271
			c0.348-3.424,0.68-6.846,1.013-10.271c0.332-3.422,0.681-6.852,0.981-10.277c0.3-3.422,0.665-6.847,0.981-10.276
			c2.279,0,4.496,0,6.744,0c0.19-2.221,0.412-4.442,0.602-6.673c12.505,0,25.011,0,37.517,0c0,2.406-0.032,4.795-0.032,7.196
			c0,2.389,0,4.79,0,7.185c-9.213,0-18.331,0-27.417,0c-0.285,4.284-0.57,8.561-0.823,12.847c-0.253,4.271-0.443,8.562-0.729,12.84
			c9.625,0,19.281,0,28.905,0c0,2.395,0,4.784,0,7.185c0,2.39,0,4.79-0.031,7.179c-13.962,0-27.892,0-41.886,0
			C859.981,153.351,860.076,152.404,860.108,151.457L860.108,151.457z M774.437,126.461c1.995,0,3.958,0,5.984,0
			c0.538-2.292,1.125-4.592,1.678-6.875c0.555-2.295,1.139-4.583,1.741-6.875c-1.9,0-3.799,0-5.794,0
			c-0.602,2.292-1.19,4.594-1.773,6.875C775.685,121.89,775.07,124.17,774.437,126.461L774.437,126.461z M851.56,105.483
			c-1.108,0-2.216,0-3.292,0c0.159-1.04,0.316-2.079,0.475-3.119c-0.917,0-1.836,0-2.754,0c0.126-0.833,0.221-1.666,0.38-2.503
			c-11.936,0-23.872,0-35.776,0c-0.949,4.54-1.915,9.082-2.786,13.619c-0.871,4.531-1.773,9.074-2.691,13.608
			c-0.918,4.534-1.82,9.065-2.691,13.602c-0.87,4.531-1.709,9.074-2.596,13.603c6.554,0,13.17,0,19.851,0
			c0.475-3.277,1.014-6.575,1.52-9.847c0.508-3.287,1.076-6.575,1.583-9.863c2.152,0,4.306,0,6.49,0
			c-0.475,3.288-0.995,6.568-1.488,9.863c-0.489,3.271-0.981,6.57-1.393,9.847c6.585,0,13.202,0,19.85,0
			c0.38-3.451,0.76-6.913,1.14-10.369c0.38-3.457,0.729-6.918,1.077-10.38c-1.615,0-3.356,0-5.002,0
			c0.032-0.855,0.19-1.709,0.285-2.569c0.918,0,1.836,0,2.786,0c0.095-0.746,0.158-1.497,0.253-2.248c0.728,0,1.456,0,2.216,0
			c0.475-4.437,0.968-8.874,1.457-13.303C850.817,112.106,851.211,108.799,851.56,105.483L851.56,105.483z M825.377,119.587
			c0.317-1.709,0.57-3.424,0.824-5.139c1.931,0,3.894,0,5.825,0c-0.253,1.715-0.506,3.43-0.759,5.139
			C829.271,119.587,827.372,119.587,825.377,119.587L825.377,119.587z M948.248,99.861c0.412,4.54,0.871,9.083,1.33,13.619
			c0.459,4.533,0.902,9.072,1.33,13.608c0.427,4.532,0.854,9.068,1.298,13.602c0.442,4.535,0.886,9.074,1.329,13.603
			c-6.648,0-13.233,0-19.851,0c-0.189-2.422-0.316-4.853-0.475-7.277c-0.159-2.431-0.285-4.861-0.411-7.294
			c-2.217,0-4.369,0-6.554,0c0.126,2.433,0.253,4.862,0.348,7.294c0.095,2.423,0.222,4.855,0.349,7.277c-6.648,0-13.233,0-19.882,0
			c-0.032-4.529-0.08-9.068-0.127-13.603c-0.048-4.534-0.048-9.068-0.096-13.602c-0.047-4.535-0.079-9.074-0.126-13.608
			c-0.047-4.534-0.095-9.079-0.095-13.619C920.515,99.861,934.318,99.861,948.248,99.861L948.248,99.861z M925.833,126.461
			c2.026,0,3.989,0,5.984,0c-0.127-2.292-0.27-4.587-0.412-6.875c-0.143-2.296-0.284-4.583-0.38-6.875c-1.932,0-3.895,0-5.825,0
			c0.095,2.292,0.253,4.578,0.349,6.875C925.644,121.873,925.77,124.17,925.833,126.461L925.833,126.461z M977.691,139.721
			c2.628,0,5.256,0,7.915,0c-0.696-4.208-1.393-8.426-2.089-12.633c-0.697-4.208-1.361-8.432-2.059-12.64c-2.532,0-5.033,0-7.535,0
			c0.634,4.208,1.251,8.43,1.9,12.64C976.473,131.292,977.059,135.514,977.691,139.721L977.691,139.721z M1043.86,99.861
			c-13.74,0-27.48,0-41.157,0c0.949,4.54,1.946,9.082,2.912,13.619c0.965,4.531,1.963,9.074,2.913,13.608
			c0.95,4.534,1.963,9.074,2.913,13.608c0.949,4.534,1.931,9.068,2.912,13.597c15.323,0,30.679,0,46.065,0
			c-0.729-2.389-1.458-4.79-2.185-7.179c-0.729-2.395-1.457-4.79-2.153-7.185c-8.421,0-16.843,0-25.232,0
			c-0.476-1.851-0.981-3.707-1.456-5.552c8.326,0,16.684,0,24.979,0c-0.76-2.428-1.428-4.871-2.184-7.288
			c-0.764-2.438-1.488-4.861-2.217-7.3c-8.073,0-16.146,0-24.22,0c-0.507-1.845-0.981-3.696-1.456-5.547c7.979,0,15.956,0,23.966,0
			c-0.76-2.395-1.502-4.785-2.216-7.185C1045.334,104.666,1044.62,102.267,1043.86,99.861z"/>
		<g>
			<g>
				<linearGradient id="SVGID_70_" gradientUnits="userSpaceOnUse" x1="903.7671" y1="159.4399" x2="903.7671" y2="108.4046">
					<stop  offset="0" style="stop-color:#7C8194"/>
					<stop  offset="1" style="stop-color:#FFFFFF"/>
				</linearGradient>
				<path fill-rule="evenodd" clip-rule="evenodd" fill="url(#SVGID_70_)" d="M804.608,99.861c-0.95,4.273-1.898,8.523-2.786,12.786
					c-0.884,4.245-1.833,8.513-2.723,12.775c-0.946,4.529-1.883,9.071-2.818,13.608c-0.933,4.525-1.899,9.068-2.849,13.602
					c-6.458,0-12.886,0-19.344,0c0.507-1.872,0.966-3.743,1.393-5.612c0.555-2.431,1.203-4.861,1.836-7.294c-0.19,0-0.38,0-0.539,0
					c0.127-0.555,0.285-1.116,0.443-1.671c-2.216,0-4.432,0-6.617,0c-0.665,2.433-1.282,4.868-1.899,7.294
					c-0.617,2.424-1.235,4.855-1.9,7.283c-6.396,0-12.822,0-19.186,0c1.234-4.256,2.472-8.527,3.704-12.775
					c1.237-4.265,2.581-8.508,3.862-12.764c0.682-2.265,1.348-4.549,2.026-6.804c0.683-2.269,1.362-4.545,2.058-6.81
					c0.697-2.269,1.408-4.529,2.089-6.798c0.68-2.266,1.393-4.545,2.089-6.82C777.16,99.861,790.868,99.861,804.608,99.861
					L804.608,99.861z M992.477,101.831c0.981,0,1.932,0,2.913,0c0.19,0.991,0.349,1.987,0.507,2.972c0.696,0,1.393,0,2.089,0
					c0.761,3.713,1.536,7.439,2.279,11.148c0.745,3.715,1.554,7.424,2.312,11.143c0.698,3.428,1.393,6.875,2.059,10.309
					c0.664,3.429,1.393,6.869,2.089,10.304c-1.71,0-3.419,0-5.097,0c0.095,0.555,0.189,1.116,0.284,1.671c-0.095,0-0.189,0-0.284,0
					c0.189,1.083,0.411,2.172,0.601,3.255c-14.151,0-28.335,0-42.519,0c-0.475-4.534-1.014-9.074-1.488-13.602
					c-0.475-4.534-0.949-9.074-1.456-13.608c-0.475-4.256-0.997-8.511-1.456-12.77c-0.459-4.255-0.918-8.519-1.394-12.792
					c12.728,0,25.454,0,38.214,0C992.224,100.525,992.351,101.178,992.477,101.831L992.477,101.831z M861.374,103.072
					c0.918,0,1.805,0,2.723,0c0.127-1.067,0.222-2.134,0.317-3.211c12.474,0,24.948,0,37.454,0c-0.032,1.856-0.019,3.69-0.032,5.53
					c-0.018,2.395,0.032,4.795,0,7.185c-9.213,0-18.331,0-27.449,0c-0.253,4.284-0.57,8.567-0.823,12.846
					c-0.253,4.273-0.475,8.562-0.728,12.841c0.032,0,0.095,0,0.158,0c-0.032,0.561-0.063,1.116-0.095,1.671
					c9.625,0,19.217,0,28.873,0c-0.031,1.84-0.077,3.669-0.063,5.514c0.018,2.39,0.032,4.79,0,7.185c-13.898,0-27.829,0-41.696,0
					c0.158-1.666,0.253-3.326,0.443-4.991c-0.095,0-0.158,0-0.222,0c0.032-0.555,0.063-1.116,0.127-1.671c-2.375,0-4.749,0-7.155,0
					c0.316-3.141,0.633-6.298,0.918-9.438c0.285-3.141,0.615-6.292,0.918-9.438c0.33-3.423,0.68-6.852,1.013-10.277
					c0.332-3.422,0.696-6.848,1.044-10.277c1.267,0,2.564,0,3.862,0C861.089,105.38,861.248,104.226,861.374,103.072
					L861.374,103.072z M774.405,126.467c1.995,0,3.989,0,5.984,0c0.57-2.292,1.108-4.583,1.678-6.875
					c0.57-2.292,1.171-4.583,1.773-6.875c-0.19,0-0.38,0-0.538,0c0.126-0.555,0.285-1.116,0.443-1.671c-1.963,0-3.862,0-5.825,0
					c-0.57,2.292-1.188,4.587-1.773,6.875c-0.586,2.29-1.203,4.583-1.836,6.875c0.159,0,0.348,0,0.538,0
					C774.69,125.356,774.532,125.912,774.405,126.467L774.405,126.467z M843.708,130.985c-0.095,0-0.158,0-0.221,0
					c0.031-0.86,0.063-0.816,0.158-1.676c0.95,0,1.868,0,2.817,0c0.063-0.74,0.159-1.492,0.253-2.243c0.665,0,1.393,0,2.121,0
					c0.253-2.215,0.539-4.436,0.76-6.652c0.222-2.215,0.521-4.443,0.76-6.657c0.299-2.762,0.602-5.509,0.887-8.263
					c-1.013,0-2.026,0-3.04,0c0.095-0.556,0.158-1.116,0.253-1.671c-0.126,0-0.222,0-0.317,0c0.095-0.485,0.159-0.964,0.222-1.448
					c-0.823,0-1.646,0-2.406,0c0.063-0.555,0.126-1.116,0.19-1.671c-0.095,0-0.19,0-0.253,0c0.032-0.278,0.032-0.555,0.095-0.844
					c-11.809,0-23.586,0-35.396,0c-0.475,2.275-0.934,4.553-1.393,6.814c-0.46,2.268-0.934,4.537-1.393,6.804
					c-0.458,2.261-0.934,4.542-1.361,6.81c-0.427,2.262-0.879,4.541-1.33,6.804c-0.847,4.258-1.709,8.518-2.533,12.77
					c-0.823,4.251-1.678,8.513-2.533,12.77c6.49,0,12.98,0,19.471,0c0.506-3.282,1.061-6.573,1.615-9.852s1.045-6.576,1.551-9.863
					c2.121,0,4.306,0,6.522,0c-0.127,0.556-0.222,1.116-0.285,1.671c0.095,0,0.222,0,0.348,0c-0.538,3.288-1.033,6.567-1.52,9.863
					c-0.4,2.713-0.76,5.454-1.14,8.181c6.458,0,12.981,0,19.534,0c0.38-3.456,0.778-6.917,1.14-10.375
					c0.303-2.899,0.602-5.803,0.886-8.709c-1.52,0-3.134,0-4.749,0C843.487,132.993,843.645,131.535,843.708,130.985
					L843.708,130.985z M825.377,119.592c0.095-0.555,0.19-1.116,0.317-1.671c-0.126,0-0.253,0-0.38,0
					c0.285-1.709,0.539-3.424,0.823-5.139c1.9,0,3.863,0,5.794,0c-0.127,0.555-0.19,1.116-0.285,1.671c0.095,0,0.222,0,0.349,0
					c-0.285,1.714-0.507,3.429-0.76,5.138C829.271,119.592,827.309,119.592,825.377,119.592L825.377,119.592z M948.185,99.861
					c0.19,2.275,0.428,4.549,0.634,6.82c0.205,2.263,0.485,4.539,0.696,6.804c0.422,4.533,0.887,9.074,1.33,13.608
					c0.411,4.256,0.791,8.524,1.202,12.775c0.412,4.246,0.855,8.508,1.267,12.764c-6.585,0-13.138,0-19.724,0
					c-0.158-2.428-0.27-4.854-0.443-7.283c-0.174-2.427-0.285-4.861-0.412-7.294c-2.216,0-4.368,0-6.521,0
					c0.032,0.555,0.063,1.116,0.063,1.671c-0.031,0-0.031,0-0.031,0c0.126,2.433,0.223,4.861,0.348,7.294
					c0.096,1.861,0.19,3.74,0.254,5.612c-6.648,0-13.266,0-19.819,0c-0.063-4.256-0.048-8.513-0.127-12.764
					c-0.079-4.25-0.063-8.519-0.095-12.775c-0.032-4.529-0.063-9.069-0.126-13.608c-0.032-2.264,0.016-4.54-0.032-6.804
					c-0.048-2.27-0.063-4.545-0.031-6.82C920.482,99.861,934.286,99.861,948.185,99.861L948.185,99.861z M925.833,126.467
					c1.995,0,3.958,0,5.952,0c-0.031-0.555-0.063-1.116-0.095-1.671c0,0,0.031,0,0.063,0c-0.158-2.292-0.285-4.583-0.412-6.875
					c-0.126-2.292-0.285-4.583-0.411-6.875c-1.932,0-3.862,0-5.794,0c0.031,0.555,0.063,1.116,0.095,1.671c-0.031,0-0.031,0-0.031,0
					c0.095,2.292,0.253,4.577,0.349,6.875C925.643,121.877,925.77,124.175,925.833,126.467L925.833,126.467z M977.691,139.727
					c2.597,0,5.225,0,7.915,0c-0.095-0.555-0.222-1.11-0.284-1.671c0.062,0,0.158,0,0.253,0c-0.696-4.208-1.394-8.426-2.09-12.634
					c-0.696-4.208-1.361-8.426-2.09-12.639c-2.532,0-5.002,0-7.503,0c0.096,0.555,0.158,1.116,0.254,1.671c-0.096,0-0.158,0-0.223,0
					c0.634,4.213,1.251,8.429,1.9,12.639C976.473,131.298,977.059,135.519,977.691,139.727L977.691,139.727z M1043.829,99.861
					c-13.646,0-27.228,0-40.81,0c0.887,4.273,1.852,8.532,2.755,12.792c0.901,4.253,1.817,8.505,2.754,12.77
					c0.994,4.526,1.9,9.081,2.85,13.608c0.95,4.535,1.931,9.068,2.944,13.602c15.165,0,30.361,0,45.59,0
					c-0.57-1.839-1.129-3.678-1.678-5.514c-0.717-2.393-1.457-4.79-2.153-7.185c-8.421,0-16.843,0-25.265,0
					c-0.475-1.851-0.981-3.702-1.456-5.552c0.127,0,0.253,0,0.411,0c-0.158-0.556-0.284-1.111-0.411-1.671
					c8.168,0,16.305,0,24.473,0c-0.569-1.878-1.086-3.748-1.678-5.617c-0.77-2.431-1.488-4.861-2.216-7.294
					c-8.042,0-16.146,0-24.188,0c-0.507-1.85-0.981-3.701-1.456-5.552c0.127,0,0.285,0,0.443,0c-0.19-0.555-0.349-1.116-0.475-1.671
					c7.788,0,15.64,0,23.459,0c-0.569-1.84-1.14-3.674-1.709-5.514C1045.285,104.667,1044.589,102.277,1043.829,99.861z"/>
				<linearGradient id="SVGID_71_" gradientUnits="userSpaceOnUse" x1="903.7666" y1="159.438" x2="903.7673" y2="123.2524">
					<stop  offset="0" style="stop-color:#7C8194"/>
					<stop  offset="1" style="stop-color:#FFFFFF"/>
				</linearGradient>
				<path fill-rule="evenodd" clip-rule="evenodd" fill="url(#SVGID_71_)" d="M798.562,127.937
					c-0.823,4.115-1.709,8.23-2.564,12.345c-0.855,4.115-1.71,8.236-2.564,12.351c-6.458,0-12.886,0-19.344,0
					c0.507-1.872,0.966-3.743,1.393-5.612c0.555-2.431,1.203-4.861,1.836-7.294c-0.19,0-0.38,0-0.539,0
					c0.127-0.555,0.285-1.116,0.443-1.671c-2.216,0-4.432,0-6.617,0c-0.665,2.433-1.282,4.868-1.899,7.294
					c-0.617,2.424-1.235,4.855-1.9,7.283c-6.396,0-12.822,0-19.186,0c0.95-3.233,1.887-6.484,2.786-9.7
					c0.905-3.24,1.963-6.466,2.913-9.7C766.965,131.187,782.162,129.406,798.562,127.937L798.562,127.937z M1003.178,147.707
					c0.253,1.138,0.507,2.27,0.76,3.396c-0.665,0-1.329,0-1.994,0c0.095,0.512,0.189,1.023,0.284,1.529c-14.151,0-28.335,0-42.519,0
					c-0.475-4.534-1.014-9.074-1.488-13.602c-0.475-4.534-0.949-9.074-1.456-13.608c-0.095-0.49-0.158-0.979-0.189-1.475
					c6.363,0.202,12.663,0.441,18.837,0.719c0.158,0.811,0.283,1.611,0.412,2.428c0.662,4.197,1.234,8.426,1.867,12.633
					c2.597,0,5.225,0,7.915,0c-0.095-0.555-0.222-1.11-0.284-1.671c0.062,0,0.158,0,0.253,0c-0.696-4.208-1.394-8.426-2.09-12.634
					c-0.031-0.12-0.063-0.245-0.063-0.365c6.427,0.332,12.759,0.708,18.965,1.121c0.062,0.311,0.128,0.61,0.189,0.915
					c0.697,3.429,1.393,6.875,2.059,10.309c0.664,3.429,1.393,6.869,2.089,10.304
					C1005.553,147.707,1004.35,147.707,1003.178,147.707L1003.178,147.707z M860.234,149.802c-0.792,0-1.583,0-2.375,0
					c0.032-1.279,0.095-2.553,0.127-3.832c-1.615,0-3.198,0-4.781,0c0.316-3.141,0.633-6.298,0.918-9.438
					c0.285-3.141,0.602-6.292,0.918-9.438c0.095-0.915,0.158-1.824,0.253-2.744c6.079-0.239,12.157-0.436,18.394-0.599
					c-0.063,0.555-0.095,1.116-0.126,1.671c-0.253,4.278-0.475,8.562-0.728,12.841c0.032,0,0.095,0,0.158,0
					c-0.032,0.561-0.063,1.116-0.095,1.671c9.625,0,19.217,0,28.873,0c-0.031,1.84-0.077,3.669-0.063,5.514
					c0.018,2.39,0.032,4.79,0,7.185c-13.898,0-27.829,0-41.696,0C860.076,151.691,860.171,150.749,860.234,149.802L860.234,149.802z
					 M911.618,123.25c3.197,0,9.403,0.027,14.12,0.077c0.031,1.045,0.063,2.095,0.095,3.14c1.995,0,3.958,0,5.952,0
					c-0.031-0.555-0.063-1.116-0.095-1.671c0,0,0.031,0,0.063,0c-0.032-0.468-0.063-0.937-0.096-1.399
					c6.364,0.082,12.664,0.207,18.869,0.375c0.063,1.111,0.19,2.221,0.317,3.321c0.411,4.256,0.791,8.524,1.202,12.775
					c0.412,4.246,0.855,8.508,1.267,12.764c-6.585,0-13.138,0-19.724,0c-0.158-2.428-0.27-4.854-0.443-7.283
					c-0.174-2.427-0.285-4.861-0.412-7.294c-2.216,0-4.368,0-6.521,0c0.032,0.555,0.063,1.116,0.063,1.671c-0.031,0-0.031,0-0.031,0
					c0.126,2.433,0.223,4.861,0.348,7.294c0.096,1.861,0.19,3.74,0.254,5.612c-6.648,0-13.266,0-19.819,0
					c-0.063-4.256-0.048-8.513-0.127-12.764c-0.079-4.25-0.07-8.519-0.095-12.775c-0.007-1.274,0-2.553-0.031-3.832
					C908.357,123.256,908.421,123.25,911.618,123.25L911.618,123.25z M1008.75,126.63c15.925,1.165,30.837,2.612,44.545,4.289
					c0.19,0.593,0.38,1.192,0.538,1.791c-8.168,0-16.305,0-24.473,0c0.127,0.561,0.253,1.116,0.411,1.671c-0.158,0-0.284,0-0.411,0
					c0.475,1.85,0.981,3.701,1.456,5.552c8.422,0,16.844,0,25.265,0c0.696,2.395,1.437,4.792,2.153,7.185
					c0.549,1.836,1.107,3.674,1.678,5.514c-15.229,0-30.425,0-45.59,0c-0.95-4.333-1.947-8.667-2.85-12.998
					C1010.57,135.305,1009.668,130.969,1008.75,126.63L1008.75,126.63z M805.052,127.376c13.93-1.148,28.684-2.079,44.102-2.765
					c-0.127,0.816-0.19,1.638-0.317,2.455c-0.728,0-1.457,0-2.121,0c-0.095,0.751-0.19,1.502-0.253,2.243c-0.95,0-1.868,0-2.817,0
					c-0.095,0.86-0.127,0.816-0.158,1.676c0.063,0,0.126,0,0.221,0c-0.063,0.55-0.221,2.008-0.285,2.564c1.615,0,3.229,0,4.749,0
					c-0.285,2.906-0.583,5.81-0.886,8.709c-0.362,3.458-0.76,6.918-1.14,10.375c-6.553,0-13.076,0-19.534,0
					c0.38-2.727,0.74-5.468,1.14-8.181c0.486-3.296,0.982-6.575,1.52-9.863c-0.126,0-0.253,0-0.348,0
					c0.063-0.555,0.158-1.116,0.285-1.671c-2.216,0-4.401,0-6.522,0c-0.506,3.288-0.998,6.584-1.551,9.863s-1.108,6.57-1.615,9.852
					c-6.49,0-12.98,0-19.471,0c0.823-4.208,1.708-8.42,2.533-12.628C803.404,135.808,804.197,131.589,805.052,127.376z"/>
			</g>
			<linearGradient id="SVGID_72_" gradientUnits="userSpaceOnUse" x1="1057.9131" y1="154.0693" x2="1060.4187" y2="154.0693">
				<stop  offset="0" style="stop-color:#636182"/>
				<stop  offset="1" style="stop-color:#FFFFFF"/>
			</linearGradient>
			<path fill-rule="evenodd" clip-rule="evenodd" fill="url(#SVGID_72_)" d="M1057.886,153.847c0.823,0.152,1.678,0.305,2.533,0.446
				C1059.563,154.151,1058.709,153.999,1057.886,153.847z"/>
		</g>
	</g>
</g>
</svg>
