<svg id="Capa_1" enable-background="new 0 0 512 512" height="512" viewBox="0 0 512 512" width="512" xmlns="http://www.w3.org/2000/svg"><g><g><path d="m134.5 504.5h-117c-5.523 0-10-4.477-10-10v-117c0-5.523 4.477-10 10-10h117c5.523 0 10 4.477 10 10v117c0 5.523-4.477 10-10 10z" fill="#ffc269"/><path d="m134.5 367.5h-30c5.523 0 10 4.477 10 10v117c0 5.523-4.477 10-10 10h30c5.523 0 10-4.477 10-10v-117c0-5.523-4.477-10-10-10z" fill="#ffa95f"/><path d="m314.5 504.5h-117c-5.523 0-10-4.477-10-10v-117c0-5.523 4.477-10 10-10h117c5.523 0 10 4.477 10 10v117c0 5.523-4.477 10-10 10z" fill="#b3e59f"/><path d="m314.5 367.5h-30c5.523 0 10 4.477 10 10v117c0 5.523-4.477 10-10 10h30c5.523 0 10-4.477 10-10v-117c0-5.523-4.477-10-10-10z" fill="#95d6a4"/><path d="m494.5 504.5h-117c-5.523 0-10-4.477-10-10v-117c0-5.523 4.477-10 10-10h117c5.523 0 10 4.477 10 10v117c0 5.523-4.477 10-10 10z" fill="#ff8086"/><path d="m494.5 367.5h-30c5.523 0 10 4.477 10 10v117c0 5.523-4.477 10-10 10h30c5.523 0 10-4.477 10-10v-117c0-5.523-4.477-10-10-10z" fill="#e5646e"/><g><g><path d="" fill="#fff"/></g></g><g><path d="m238.5 108.5h35v83h-35z" fill="#fff0af"/><path d="m292.5 229.5h-73c-5.523 0-10-4.477-10-10v-33c0-5.523 4.477-10 10-10h73c5.523 0 10 4.477 10 10v33c0 5.523-4.477 10-10 10z" fill="#655e68"/><path d="m292.5 176.5h-30c5.523 0 10 4.477 10 10v33c0 5.523-4.477 10-10 10h30c5.523 0 10-4.477 10-10v-33c0-5.523-4.477-10-10-10z" fill="#544f57"/><path d="m256 132.5c-28.443 0-51.5-23.057-51.5-51.5v-68.5c0-2.761 2.239-5 5-5h93c2.761 0 5 2.239 5 5v68.5c0 28.443-23.057 51.5-51.5 51.5z" fill="#ffe07d"/><path d="m302.5 7.5h-30c2.761 0 5 2.239 5 5v68.5c0 23.224-15.375 42.851-36.5 49.274 4.747 1.443 9.781 2.226 15 2.226 28.443 0 51.5-23.057 51.5-51.5v-68.5c0-2.761-2.239-5-5-5z" fill="#ffd064"/></g></g><path d="m494.5 360h-29.933c-4.142 0-7.5 3.357-7.5 7.5s3.358 7.5 7.5 7.5h29.933c1.378 0 2.5 1.121 2.5 2.5v117c0 1.379-1.122 2.5-2.5 2.5h-117c-1.378 0-2.5-1.121-2.5-2.5v-117c0-1.379 1.122-2.5 2.5-2.5h52.067c4.142 0 7.5-3.357 7.5-7.5s-3.358-7.5-7.5-7.5h-52.067c-9.649 0-17.5 7.851-17.5 17.5v117c0 9.649 7.851 17.5 17.5 17.5h117c9.649 0 17.5-7.851 17.5-17.5v-117c0-9.649-7.851-17.5-17.5-17.5zm-31.23 56.23c0-15.037-12.233-27.271-27.27-27.271-13.001 0-24.255 9.249-26.758 21.993-.798 4.064 1.849 8.006 5.914 8.805 4.063.799 8.006-1.85 8.805-5.914 1.125-5.727 6.188-9.884 12.04-9.884 6.766 0 12.27 5.505 12.27 12.271s-5.505 12.27-12.271 12.27c-4.142 0-7.5 3.357-7.5 7.5s3.358 7.5 7.5 7.5c6.766 0 12.27 5.504 12.27 12.27s-5.504 12.27-12.27 12.27c-6.088 0-11.312-4.535-12.151-10.551-.079-.563-.119-1.143-.119-1.72 0-4.143-3.358-7.5-7.5-7.5s-7.5 3.357-7.5 7.5c0 1.27.088 2.547.263 3.794 1.868 13.384 13.478 23.477 27.007 23.477 15.037 0 27.27-12.233 27.27-27.271 0-7.776-3.277-14.797-8.517-19.77 5.24-4.972 8.517-11.992 8.517-19.769zm-148.77-56.23h-117c-9.649 0-17.5 7.851-17.5 17.5v117c0 9.649 7.851 17.5 17.5 17.5h117c9.649 0 17.5-7.851 17.5-17.5v-117c0-9.649-7.851-17.5-17.5-17.5zm2.5 134.5c0 1.379-1.122 2.5-2.5 2.5h-117c-1.378 0-2.5-1.121-2.5-2.5v-117c0-1.379 1.122-2.5 2.5-2.5h117c1.378 0 2.5 1.121 2.5 2.5zm8.479-254.973c-2.747 3.101-2.459 7.841.642 10.587l105 93c3.09 2.739 7.832 2.468 10.587-.642 2.747-3.101 2.459-7.841-.642-10.587l-105-93c-3.101-2.746-7.841-2.458-10.587.642zm-244.599 103.587 105-93c3.101-2.746 3.388-7.486.642-10.587-2.746-3.102-7.486-3.39-10.587-.642l-105 93c-3.101 2.746-3.388 7.486-.642 10.587 2.754 3.11 7.498 3.38 10.587.642zm167.62-83.614v78c0 4.143 3.358 7.5 7.5 7.5s7.5-3.357 7.5-7.5v-78c0-4.143-3.358-7.5-7.5-7.5s-7.5 3.357-7.5 7.5zm28.724 208.209c-.032 0-.064 0-.096.001-8.807.11-18.166.154-25.478.177 4.356-5.782 10.77-14.474 19.846-27.441 4.845-6.923 8-13.442 9.375-19.38.057-.245.102-.493.133-.743l.382-2.989c.041-.315.061-.633.061-.95 0-15.036-12.233-27.27-27.27-27.27-13.002 0-24.255 9.249-26.758 21.992-.798 4.064 1.85 8.007 5.914 8.805 4.066.797 8.007-1.85 8.805-5.914 1.125-5.727 6.188-9.883 12.04-9.883 6.625 0 12.04 5.276 12.262 11.849l-.263 2.057c-.992 3.982-3.335 8.632-6.97 13.825-12.252 17.506-19.565 27.082-23.495 32.227-4.844 6.344-6.657 8.717-5.354 12.953.756 2.458 2.622 4.347 5.124 5.181 1.002.333 2.099.699 16.982.699 5.865 0 13.87-.057 24.853-.195 4.142-.052 7.457-3.451 7.405-7.593-.053-4.112-3.4-7.408-7.498-7.408zm-142.724-107.709h-117c-9.649 0-17.5 7.851-17.5 17.5v117c0 9.649 7.851 17.5 17.5 17.5h117c9.649 0 17.5-7.851 17.5-17.5v-51.346c0-4.143-3.358-7.5-7.5-7.5s-7.5 3.357-7.5 7.5v51.346c0 1.379-1.122 2.5-2.5 2.5h-117c-1.378 0-2.5-1.121-2.5-2.5v-117c0-1.379 1.122-2.5 2.5-2.5h117c1.378 0 2.5 1.121 2.5 2.5v30.654c0 4.143 3.358 7.5 7.5 7.5s7.5-3.357 7.5-7.5v-30.654c0-9.649-7.851-17.5-17.5-17.5zm65.414-260.716c5.08 15.543 16.445 28.262 31.086 35.141v34.575h-11.5c-9.649 0-17.5 7.851-17.5 17.5v33c0 9.649 7.851 17.5 17.5 17.5h73c9.649 0 17.5-7.851 17.5-17.5v-33c0-9.649-7.851-17.5-17.5-17.5h-11.5v-34.575c14.641-6.879 26.006-19.598 31.086-35.141 27.082-4.675 47.594-28.538 47.594-56.524v-15.26c0-6.893-5.607-12.5-12.5-12.5h-32.18v-2.5c0-6.893-5.607-12.5-12.5-12.5h-93c-6.893 0-12.5 5.607-12.5 12.5v2.5h-32.18c-6.893 0-12.5 5.607-12.5 12.5v15.26c0 27.986 20.513 51.849 47.594 56.524zm115.086-69.284h29.68v12.76c0 18.761-12.48 35.006-29.736 40.428.083-1.959.083-51.056.056-53.188zm-22.5 154c1.378 0 2.5 1.121 2.5 2.5v33c0 1.379-1.122 2.5-2.5 2.5h-73c-1.378 0-2.5-1.121-2.5-2.5v-33c0-1.379 1.122-2.5 2.5-2.5zm-46.5-15v-29.865c3.253.558 6.59.865 10 .865s6.747-.307 10-.865v29.865zm-34-154h88v66c0 24.262-19.738 44-44 44s-44-19.738-44-44zm-44.68 15h29.68c.022 2.132-.045 51.232.055 53.188-17.255-5.422-29.735-21.667-29.735-40.428zm-83.063 452.131c4.142 0 7.5-3.357 7.5-7.5v-77.262c0-4.143-3.358-7.5-7.5-7.5h-16.514c-4.142 0-7.5 3.357-7.5 7.5s3.358 7.5 7.5 7.5h9.014v69.762c0 4.142 3.358 7.5 7.5 7.5z"/></g></svg>