<svg height="512" viewBox="0 0 512 512" width="512" xmlns="http://www.w3.org/2000/svg"><g id="outline"><path d="m122.811 424.249 6.594 20.5a52.989 52.989 0 0 0 87.181 21.962l6.312 5.05a52.7 52.7 0 0 0 66.2 0l6.312-5.05a52.988 52.988 0 0 0 87.18-21.962l6.594-20.5a134.868 134.868 0 0 1 28.116-48.582 215.662 215.662 0 0 0 54.7-143.667c0-57.859-22.931-112.352-64.571-153.44-41.658-41.1-96.458-63.291-154.374-62.542a216 216 0 0 0 -157.369 360.744 129.269 129.269 0 0 1 27.125 47.487zm-9.125-332.772a198.765 198.765 0 0 1 139.583-59.458c53.571-.719 104.331 19.857 142.922 57.932 38.569 38.057 59.809 88.506 59.809 142.049a199.679 199.679 0 0 1 -50.647 133.019 150.757 150.757 0 0 0 -31.4 54.331l-6.594 20.5a36.989 36.989 0 0 1 -61.359 14.833l-.843-.844 14.436-43.309a8 8 0 1 0 -15.178-5.06l-15.253 45.759-10.052 8.041a36.785 36.785 0 0 1 -46.213 0l-10.051-8.041-15.257-45.759a8 8 0 1 0 -15.178 5.06l14.436 43.309-.843.844a36.989 36.989 0 0 1 -61.367-14.829l-6.595-20.5a145.152 145.152 0 0 0 -30.484-53.314 200 200 0 0 1 6.128-274.559z"/><path d="m168 288a72 72 0 1 0 -72-72 72.081 72.081 0 0 0 72 72zm0-128a56 56 0 1 1 -56 56 56.064 56.064 0 0 1 56-56z"/><path d="m344 288a72 72 0 1 0 -72-72 72.081 72.081 0 0 0 72 72zm0-128a56 56 0 1 1 -56 56 56.064 56.064 0 0 1 56-56z"/><path d="m226.486 304.576-8.043 16.086a23.138 23.138 0 0 0 37.042 26.7.729.729 0 0 1 1.029 0 23.129 23.129 0 0 0 37.043-26.7l-8.043-16.086a33 33 0 0 0 -59.028 0zm29.514-2.241a16.907 16.907 0 0 1 15.2 9.4l8.043 16.086a7.13 7.13 0 0 1 -11.419 8.229 16.747 16.747 0 0 0 -23.655 0 7.13 7.13 0 0 1 -11.418-8.23l8.043-16.086a16.907 16.907 0 0 1 15.206-9.399z"/><path d="m402.343 306.343a104.384 104.384 0 0 0 -25.088 40.593l-.844 2.534a8 8 0 1 0 15.178 5.06l.845-2.534a88.3 88.3 0 0 1 21.223-34.339 8 8 0 0 0 -11.314-11.314z"/><path d="m120.411 354.53a8 8 0 0 0 15.178-5.06l-.844-2.533a104.38 104.38 0 0 0 -25.088-40.594 8 8 0 0 0 -11.314 11.314 88.3 88.3 0 0 1 21.223 34.343z"/></g></svg>