<svg height="512" fill="#A1140A" viewBox="0 0 64 64" width="512" xmlns="http://www.w3.org/2000/svg"><path d="m57 16h-19a5.985 5.985 0 0 0 -2.3-4.712l4.05-4.629a1 1 0 0 0 -1.5-1.318l-4.35 4.972a5.92 5.92 0 0 0 -4.415.248l-9.839-8.324a1 1 0 1 0 -1.292 1.526l9.427 7.977a5.977 5.977 0 0 0 -1.781 4.26h-19a5.006 5.006 0 0 0 -5 5v23a1 1 0 0 0 2 0v-23a3 3 0 0 1 3-3h50a3 3 0 0 1 3 3v32a3 3 0 0 1 -3 3h-50a3 3 0 0 1 -3-3v-5a1 1 0 0 0 -2 0v5a5.006 5.006 0 0 0 5 5h47v2h-45a1 1 0 0 0 0 2h46a1 1 0 0 0 1-1v-3h1a5.006 5.006 0 0 0 5-5v-32a5.006 5.006 0 0 0 -5-5zm-29 0a4 4 0 0 1 8 0z"/><path d="m7 52a1 1 0 0 0 1 1h40a1 1 0 0 0 1-1v-5a1 1 0 0 0 -2 0v4h-38v-19a1 1 0 0 0 -2 0z"/><path d="m48 44a1 1 0 0 0 1-1v-21a1 1 0 0 0 -1-1h-40a1 1 0 0 0 -1 1v6a1 1 0 0 0 2 0v-5h38v20a1 1 0 0 0 1 1z"/><path d="m54 29a3 3 0 1 0 -3-3 3 3 0 0 0 3 3zm0-4a1 1 0 1 1 -1 1 1 1 0 0 1 1-1z"/><path d="m52 35h4a1 1 0 0 0 0-2h-4a1 1 0 0 0 0 2z"/><path d="m52 39h4a1 1 0 0 0 0-2h-4a1 1 0 0 0 0 2z"/><path d="m52 43h4a1 1 0 0 0 0-2h-4a1 1 0 0 0 0 2z"/><path d="m51 51a1 1 0 0 0 1 1h4a1 1 0 0 0 1-1v-4a1 1 0 0 0 -1-1h-4a1 1 0 0 0 -1 1zm2-3h2v2h-2z"/><path d="m16 40v6a1 1 0 0 0 1 1h4a1 1 0 0 0 0-2h-3v-5a1 1 0 0 0 -2 0z"/><path d="m24 40v6a1 1 0 0 0 2 0v-6a1 1 0 0 0 -2 0z"/><path d="m30.051 46.316a1 1 0 0 0 1.9 0l2-6a1 1 0 1 0 -1.9-.632l-1.051 3.154-1.051-3.154a1 1 0 1 0 -1.9.632z"/><path d="m41 41a1 1 0 0 0 0-2h-4a1 1 0 0 0 -1 1v6a1 1 0 0 0 1 1h4a1 1 0 0 0 0-2h-3v-1h2a1 1 0 0 0 0-2h-2v-1z"/><path d="m27.121 37.293a1 1 0 0 0 0-1.414 3.072 3.072 0 0 0 -4.244 0 1 1 0 0 0 1.415 1.414 1.023 1.023 0 0 1 1.414 0 1 1 0 0 0 1.414 0z"/><path d="m29.243 34.757a1 1 0 0 0 .707-1.707 7.009 7.009 0 0 0 -9.9 0 1 1 0 1 0 1.414 1.414 5.008 5.008 0 0 1 7.072 0 .993.993 0 0 0 .707.293z"/><path d="m18.636 31.636a9.01 9.01 0 0 1 12.728 0 1 1 0 0 0 1.414-1.414 11.012 11.012 0 0 0 -15.556 0 1 1 0 0 0 1.414 1.414z"/></svg>