<svg id="Capa_1" enable-background="new 0 0 496.244 496.244" height="512" viewBox="0 0 496.244 496.244" width="512" xmlns="http://www.w3.org/2000/svg"><g><g fill="#cbc4cc"><path d="m358.682 414.586c0 5.076-4.115 9.191-9.191 9.191h-81.265c-5.076 0-9.191-4.115-9.191-9.191v-111.463h99.647z"/><path d="m453.967 386.497 35.827 84.271c.571 1.342-.414 2.832-1.873 2.832h-16.829c-.543 0-1.064-.217-1.446-.603l-85.701-86.5-82.907-90.362 125.093-24.426z"/><path d="m112.298 386.497-85.701 86.5c-.382.386-.903.603-1.446.603h-16.828c-1.459 0-2.444-1.489-1.873-2.832l35.827-84.271 38.117-83.374h98.949z"/></g><g><path d="m466.829 63.278c16.245 0 29.415 13.17 29.415 29.415v264.389c0 16.245-13.17 29.415-29.415 29.415h-437.414c-16.245 0-29.415-13.169-29.415-29.415v-291.076z" fill="#b5adb6"/><path d="m78.135 357.082v-291.076l393.669-2.3c-1.618-.276-3.279-.427-4.975-.427l-466.829 2.727v291.077c0 16.245 13.17 29.415 29.415 29.415h78.135c-16.245-.001-29.415-13.17-29.415-29.416z" fill="#a79ba7"/><path d="m0 66.006v121.505c4.328 1.984 9.133 3.099 14.196 3.099h210.24c18.856 0 34.196-15.341 34.196-34.197v-91.918z" fill="#a79ba7"/><path d="m466.243 105.655v238.466c0 6.835-5.541 12.376-12.376 12.376h-411.491c-6.835 0-12.376-5.541-12.376-12.376v-238.466c0-6.835 5.541-12.376 12.376-12.376h411.491c6.835-.001 12.376 5.54 12.376 12.376z" fill="#d5e3f4"/><path d="m42.376 93.278c-6.835 0-12.376 5.541-12.376 12.377v238.466c0 6.835 5.541 12.376 12.376 12.376h35.759v-100.574c0-36.072 29.242-65.313 65.313-65.313h80.988c18.886 0 34.196-15.31 34.196-34.196v-63.136z" fill="#b3ceec"/><path d="m224.436 170.609h-210.24c-7.84 0-14.196-6.356-14.196-14.196v-119.573c0-7.84 6.356-14.196 14.196-14.196h210.24c7.84 0 14.196 6.356 14.196 14.196v119.573c.001 7.84-6.355 14.196-14.196 14.196z" fill="#fd8087"/><path d="m96.26 147.049c-24.341 0-44.074-19.733-44.074-44.074v-80.332h-37.99c-7.84 0-14.196 6.356-14.196 14.197v119.573c0 7.84 6.356 14.196 14.196 14.196h210.24c7.84 0 14.196-6.356 14.196-14.196v-9.364z" fill="#fe646f"/><g><g fill="#f3f0f3"><path d="m63.261 114.496h-14.65v-48.49c0-4.142-3.358-7.5-7.5-7.5s-7.5 3.358-7.5 7.5v55.99c0 4.142 3.358 7.5 7.5 7.5h22.15c4.142 0 7.5-3.358 7.5-7.5s-3.357-7.5-7.5-7.5z"/><path d="m90.949 58.506c-4.142 0-7.5 3.358-7.5 7.5v55.99c0 4.142 3.358 7.5 7.5 7.5s7.5-3.358 7.5-7.5v-55.99c0-4.142-3.358-7.5-7.5-7.5z"/><path d="m148.925 58.774c-3.994-1.099-8.122 1.251-9.219 5.245l-7.606 27.686-6.485-27.425c-.953-4.031-4.995-6.528-9.025-5.573-4.031.953-6.526 4.994-5.573 9.025l13.24 55.99c.789 3.335 3.738 5.711 7.164 5.773.045 0 .091.001.136.001 3.37 0 6.335-2.252 7.23-5.513l15.382-55.99c1.099-3.994-1.249-8.122-5.244-9.219z"/><path d="m196.776 114.496h-17.111v-11.995h9.728c4.142 0 7.5-3.358 7.5-7.5s-3.358-7.5-7.5-7.5h-9.728v-13.995h17.111c4.142 0 7.5-3.358 7.5-7.5s-3.358-7.5-7.5-7.5h-20.087c-6.63 0-12.023 5.394-12.023 12.023v46.942c0 6.63 5.394 12.024 12.023 12.024h20.087c4.142 0 7.5-3.358 7.5-7.5s-3.358-7.499-7.5-7.499z"/></g></g></g></g></svg>