<svg height="512pt" viewBox="0 0 512 512" width="512pt" xmlns="http://www.w3.org/2000/svg"><path d="m256 156c88.371094 0 160 100 160 100s-71.628906 100-160 100-160-100-160-100 71.628906-100 160-100zm0 0" fill="#fff"/><path d="m278.5 200.378906c-21.984375 8.898438-37.5 30.441406-37.5 55.621094s15.515625 46.722656 37.5 55.621094c21.984375-8.898438 37.5-30.441406 37.5-55.621094s-15.515625-46.722656-37.5-55.621094zm0 0" fill="#4dbbeb"/><path d="m256 236c11.03125 0 20 8.96875 20 20s-8.96875 20-20 20-20-8.96875-20-20 8.96875-20 20-20zm0 0" fill="#feb756"/><path d="m375.421875 454.832031c-37.3125 24.316407-80.683594 37.167969-125.421875 37.167969-126.820312 0-230-103.179688-230-230 0-19.457031 2.4375-38.808594 7.246094-57.511719 1.375-5.347656-1.847656-10.796875-7.195313-12.171875-5.351562-1.375-10.800781 1.84375-12.175781 7.195313-5.226562 20.328125-7.875 41.351562-7.875 62.488281 0 66.777344 26.003906 129.558594 73.222656 176.777344s110 73.222656 176.777344 73.222656c48.628906 0 95.773438-13.972656 136.339844-40.410156 4.628906-3.019532 5.933594-9.210938 2.917968-13.839844-3.015624-4.628906-9.210937-5.933594-13.835937-2.917969zm0 0"/><path d="m33.589844 165.089844c1.351562.617187 2.769531.914062 4.164062.914062 3.789063 0 7.410156-2.164062 9.09375-5.832031 4.6875-10.214844 10.179688-20.167969 16.320313-29.59375 3.015625-4.625 1.710937-10.820313-2.917969-13.835937-4.625-3.015626-10.820312-1.710938-13.835938 2.917968-6.675781 10.242188-12.644531 21.0625-17.742187 32.167969-2.304687 5.019531-.101563 10.957031 4.917969 13.261719zm0 0"/><path d="m93.371094 93.371094c3.898437-3.910156 3.898437-10.242188 0-14.152344-3.910156-3.898438-10.242188-3.898438-14.152344 0-3.898438 3.910156-3.898438 10.242188 0 14.152344 3.910156 3.898437 10.242188 3.898437 14.152344 0zm0 0"/><path d="m424.128906 250.175781c-.757812-1.058593-18.941406-26.261719-48.453125-51.746093-39.726562-34.300782-81.109375-52.429688-119.675781-52.429688s-79.949219 18.128906-119.675781 52.429688c-29.511719 25.484374-47.695313 50.6875-48.453125 51.746093-2.492188 3.480469-2.492188 8.167969 0 11.648438.757812 1.058593 18.941406 26.261719 48.453125 51.746093 39.726562 34.300782 81.109375 52.429688 119.675781 52.429688s79.949219-18.128906 119.675781-52.429688c29.511719-25.484374 47.695313-50.6875 48.453125-51.746093 2.496094-3.480469 2.496094-8.167969 0-11.648438zm-168.128906 95.824219c-70.144531 0-130.773438-69.230469-147.382812-90.007812 16.585937-20.785157 77.105468-89.992188 147.382812-89.992188 70.144531 0 130.773438 69.226562 147.382812 90.007812-16.585937 20.785157-77.105468 89.992188-147.382812 89.992188zm0 0"/><path d="m256 186c-38.597656 0-70 31.402344-70 70s31.402344 70 70 70 70-31.402344 70-70-31.402344-70-70-70zm0 120c-27.570312 0-50-22.429688-50-50s22.429688-50 50-50 50 22.429688 50 50-22.429688 50-50 50zm0 0"/><path d="m256 226c-16.542969 0-30 13.457031-30 30s13.457031 30 30 30 30-13.457031 30-30-13.457031-30-30-30zm0 40c-5.515625 0-10-4.484375-10-10s4.484375-10 10-10 10 4.484375 10 10-4.484375 10-10 10zm0 0"/><path d="m266 116v-40c0-5.523438-4.476562-10-10-10s-10 4.476562-10 10v40c0 5.523438 4.476562 10 10 10s10-4.476562 10-10zm0 0"/><path d="m266 436v-40c0-5.523438-4.476562-10-10-10s-10 4.476562-10 10v40c0 5.523438 4.476562 10 10 10s10-4.476562 10-10zm0 0"/><path d="m157.011719 167.011719c2.558593 0 5.117187-.976563 7.070312-2.929688 3.902344-3.90625 3.902344-10.238281 0-14.144531l-28.292969-28.289062c-3.902343-3.90625-10.234374-3.90625-14.140624 0s-3.90625 10.238281 0 14.140624l28.289062 28.292969c1.953125 1.953125 4.511719 2.929688 7.074219 2.929688zm0 0"/><path d="m362.0625 347.917969c-3.90625-3.902344-10.238281-3.902344-14.144531 0-3.902344 3.90625-3.902344 10.238281 0 14.144531l28.292969 28.289062c1.949218 1.953126 4.511718 2.929688 7.070312 2.929688s5.117188-.976562 7.070312-2.929688c3.90625-3.90625 3.90625-10.238281 0-14.140624zm0 0"/><path d="m135.792969 390.351562 28.289062-28.289062c3.90625-3.90625 3.90625-10.238281 0-14.144531s-10.238281-3.90625-14.144531 0l-28.289062 28.289062c-3.90625 3.90625-3.90625 10.238281 0 14.144531 1.953124 1.953126 4.511718 2.929688 7.070312 2.929688s5.121094-.976562 7.074219-2.929688zm0 0"/><path d="m362.0625 164.082031 28.289062-28.292969c3.90625-3.902343 3.90625-10.234374 0-14.140624s-10.238281-3.90625-14.140624 0l-28.292969 28.289062c-3.902344 3.90625-3.902344 10.238281 0 14.144531 1.953125 1.953125 4.511719 2.929688 7.070312 2.929688 2.5625 0 5.121094-.976563 7.074219-2.929688zm0 0"/><path d="m438.777344 73.222656c-47.21875-47.21875-110-73.222656-176.777344-73.222656-48.628906 0-95.773438 13.972656-136.339844 40.410156-4.628906 3.019532-5.933594 9.210938-2.917968 13.839844 3.015624 4.628906 9.210937 5.933594 13.835937 2.917969 37.3125-24.316407 80.683594-37.167969 125.421875-37.167969 126.820312 0 230 103.179688 230 230 0 19.457031-2.4375 38.808594-7.246094 57.511719-1.375 5.347656 1.847656 10.796875 7.195313 12.171875.835937.214844 1.671875.320312 2.496093.320312 4.457032 0 8.519532-3 9.679688-7.515625 5.226562-20.328125 7.875-41.351562 7.875-62.488281 0-66.777344-26.003906-129.558594-73.222656-176.777344zm0 0"/><path d="m478.410156 346.910156c-5.019531-2.300781-10.957031-.101562-13.257812 4.917969-4.6875 10.214844-10.179688 20.167969-16.320313 29.59375-3.015625 4.625-1.710937 10.820313 2.917969 13.835937 1.683594 1.097657 3.578125 1.625 5.449219 1.625 3.269531 0 6.472656-1.601562 8.390625-4.542968 6.671875-10.242188 12.640625-21.0625 17.738281-32.167969 2.304687-5.019531.101563-10.957031-4.917969-13.261719zm0 0"/><path d="m418.628906 418.628906c-3.898437 3.910156-3.898437 10.242188 0 14.152344 3.910156 3.898438 10.242188 3.898438 14.152344 0 3.898438-3.910156 3.898438-10.242188 0-14.152344-3.910156-3.898437-10.242188-3.898437-14.152344 0zm0 0"/></svg>