<svg id="Capa_1" enable-background="new 0 0 513.107 513.107" height="512" viewBox="0 0 513.107 513.107" width="512" xmlns="http://www.w3.org/2000/svg"><g><g><path d="m426.363 33.918h-33.189l.876-26.167c-.307-4.703-2.806-7.287-7.496-7.751h-260c-4.69.464-7.189 3.048-7.496 7.751l.876 26.167h-33.19c-30.058 0-54.511 24.453-54.511 54.51v16.06c0 4.143 3.357 7.5 7.5 7.5s7.5-3.357 7.5-7.5v-16.06c0-21.786 17.725-39.51 39.511-39.51h33.691l.602 18h-34.293c-11.861 0-21.511 9.649-21.511 21.51v82.279c0 11.861 9.649 21.511 21.511 21.511h39.834c1.086 6.126 2.6 12.138 4.521 18h-44.355c-21.786 0-39.511-17.725-39.511-39.511v-33.539c0-4.143-3.357-7.5-7.5-7.5s-7.5 3.357-7.5 7.5v33.539c0 30.058 24.453 54.511 54.511 54.511h50.314c16.492 35.019 49.444 62.263 86.995 71.75v59.139h-32.5c-3.854 0-7.079 2.92-7.463 6.754l-9.325 93.246h-23.213c-4.143 0-7.5 3.357-7.5 7.5v42c0 4.143 3.357 7.5 7.5 7.5h210c4.143 0 7.5-3.357 7.5-7.5v-42c0-4.143-3.357-7.5-7.5-7.5h-23.212l-9.325-93.247c-.384-3.834-3.61-6.753-7.463-6.753h-32.5v-59.139c37.508-9.476 70.506-36.736 86.994-71.75h50.316c30.058 0 54.511-24.453 54.511-54.511v-82.279c.001-30.057-24.452-54.51-54.51-54.51zm-339.619 143.3c-3.59 0-6.511-2.921-6.511-6.511v-82.279c0-3.59 2.921-6.51 6.511-6.51h34.796s3.176 94.183 3.245 95.3zm236.521 278.889h-25.371c-4.143 0-7.5 3.357-7.5 7.5s3.357 7.5 7.5 7.5h56.16v27h-195v-27h106.16c4.143 0 7.5-3.357 7.5-7.5s-3.357-7.5-7.5-7.5h-75.373l8.5-85h116.426zm-49.211-100h-35v-56.265c11.667 1.544 23.333 1.544 35 0zm6.585-72.568c-7.9 1.673-15.928 2.493-24.085 2.461-62.124 0-114.656-50.839-116.945-112.669l-5.3-158.331h244.49l-5.299 158.305c-1.955 52.793-40.785 99.451-92.861 110.234zm185.235-112.832c0 21.786-17.725 39.511-39.511 39.511h-44.356c1.921-5.862 3.434-11.873 4.521-18h39.835c11.861 0 21.511-9.649 21.511-21.511v-24.579c0-4.143-3.357-7.5-7.5-7.5s-7.5 3.357-7.5 7.5v24.579c0 3.59-2.921 6.511-6.511 6.511h-38.042c.07-1.126 3.246-95.3 3.246-95.3h34.796c3.59 0 6.511 2.92 6.511 6.51v25.01c0 4.143 3.357 7.5 7.5 7.5s7.5-3.357 7.5-7.5v-25.01c0-11.86-9.649-21.51-21.511-21.51h-34.293l.602-18h33.691c21.786 0 39.511 17.724 39.511 39.51z"/><path d="m219.054 413.604c0 4.143 3.357 7.5 7.5 7.5h60c4.143 0 7.5-3.357 7.5-7.5s-3.357-7.5-7.5-7.5h-60c-4.143 0-7.5 3.358-7.5 7.5z"/></g><g><path d="m256.554 61.775c-40.513 0-73.472 32.959-73.472 73.471 0 40.513 32.959 73.472 73.472 73.472s73.472-32.959 73.472-73.472c-.001-40.512-32.96-73.471-73.472-73.471zm0 131.943c-32.241 0-58.472-26.23-58.472-58.472s26.23-58.471 58.472-58.471 58.472 26.229 58.472 58.471-26.231 58.472-58.472 58.472z"/><path d="m268.869 148.551h-4.815v-34.167c0-4.143-3.357-7.5-7.5-7.5h-13.316c-4.143 0-7.5 3.357-7.5 7.5s3.357 7.5 7.5 7.5h5.816v26.667h-4.816c-4.143 0-7.5 3.357-7.5 7.5s3.357 7.5 7.5 7.5h24.632c4.143 0 7.5-3.357 7.5-7.5s-3.358-7.5-7.501-7.5z"/></g></g></svg>